<svg xmlns="http://www.w3.org/2000/svg" width="16" height="16" viewBox="0 0 16 16" fill="none">
  <g clip-path="url(#clip0_546_248)">
    <path d="M8.1416 1.33203H7.84845C7.49505 1.33203 7.15612 1.47242 6.90623 1.72231C6.65634 1.9722 6.51595 2.31113 6.51595 2.66453V2.78446C6.51571 3.01813 6.45403 3.24763 6.33709 3.44993C6.22015 3.65224 6.05206 3.82023 5.8497 3.93707L5.56321 4.10363C5.36065 4.22058 5.13086 4.28215 4.89696 4.28215C4.66306 4.28215 4.43328 4.22058 4.23071 4.10363L4.13077 4.05033C3.82501 3.87395 3.46175 3.8261 3.12074 3.91729C2.77973 4.00847 2.48883 4.23124 2.31191 4.53669L2.16534 4.78987C1.98895 5.09563 1.94111 5.45889 2.03229 5.7999C2.12348 6.14091 2.34625 6.43181 2.6517 6.60873L2.75164 6.67536C2.95303 6.79162 3.12048 6.95857 3.23737 7.15961C3.35425 7.36064 3.41648 7.58877 3.41789 7.82131V8.16109C3.41882 8.39589 3.35769 8.62677 3.24069 8.83035C3.12369 9.03392 2.95498 9.20297 2.75164 9.32037L2.6517 9.38033C2.34625 9.55726 2.12348 9.84815 2.03229 10.1892C1.94111 10.5302 1.98895 10.8934 2.16534 11.1992L2.31191 11.4524C2.48883 11.7578 2.77973 11.9806 3.12074 12.0718C3.46175 12.163 3.82501 12.1151 4.13077 11.9387L4.23071 11.8854C4.43328 11.7685 4.66306 11.7069 4.89696 11.7069C5.13086 11.7069 5.36065 11.7685 5.56321 11.8854L5.8497 12.052C6.05206 12.1688 6.22015 12.3368 6.33709 12.5391C6.45403 12.7414 6.51571 12.9709 6.51595 13.2046V13.3245C6.51595 13.6779 6.65634 14.0169 6.90623 14.2668C7.15612 14.5166 7.49505 14.657 7.84845 14.657H8.1416C8.495 14.657 8.83393 14.5166 9.08382 14.2668C9.33371 14.0169 9.4741 13.6779 9.4741 13.3245V13.2046C9.47434 12.9709 9.53602 12.7414 9.65296 12.5391C9.7699 12.3368 9.93798 12.1688 10.1403 12.052L10.4268 11.8854C10.6294 11.7685 10.8592 11.7069 11.0931 11.7069C11.327 11.7069 11.5568 11.7685 11.7593 11.8854L11.8593 11.9387C12.165 12.1151 12.5283 12.163 12.8693 12.0718C13.2103 11.9806 13.5012 11.7578 13.6781 11.4524L13.8247 11.1925C14.0011 10.8868 14.0489 10.5235 13.9578 10.1825C13.8666 9.84149 13.6438 9.55059 13.3383 9.37367L13.2384 9.32037C13.0351 9.20297 12.8664 9.03392 12.7494 8.83035C12.6324 8.62677 12.5712 8.39589 12.5722 8.16109V7.82797C12.5712 7.59317 12.6324 7.36229 12.7494 7.15872C12.8664 6.95514 13.0351 6.78609 13.2384 6.66869L13.3383 6.60873C13.6438 6.43181 13.8666 6.14091 13.9578 5.7999C14.0489 5.45889 14.0011 5.09563 13.8247 4.78987L13.6781 4.53669C13.5012 4.23124 13.2103 4.00847 12.8693 3.91729C12.5283 3.8261 12.165 3.87395 11.8593 4.05033L11.7593 4.10363C11.5568 4.22058 11.327 4.28215 11.0931 4.28215C10.8592 4.28215 10.6294 4.22058 10.4268 4.10363L10.1403 3.93707C9.93798 3.82023 9.7699 3.65224 9.65296 3.44993C9.53602 3.24763 9.47434 3.01813 9.4741 2.78446V2.66453C9.4741 2.31113 9.33371 1.9722 9.08382 1.72231C8.83393 1.47242 8.495 1.33203 8.1416 1.33203Z" stroke="white" stroke-width="1.66628" stroke-linecap="round" stroke-linejoin="round"/>
    <path d="M7.99497 9.99359C9.09885 9.99359 9.99372 9.09872 9.99372 7.99484C9.99372 6.89096 9.09885 5.99609 7.99497 5.99609C6.89109 5.99609 5.99622 6.89096 5.99622 7.99484C5.99622 9.09872 6.89109 9.99359 7.99497 9.99359Z" stroke="white" stroke-width="1.66628" stroke-linecap="round" stroke-linejoin="round"/>
  </g>
  <defs>
    <clipPath id="clip0_546_248">
      <rect width="15.99" height="15.99" fill="white"/>
    </clipPath>
  </defs>
</svg>