<svg xmlns="http://www.w3.org/2000/svg" width="20" height="20" viewBox="0 0 20 20" fill="none">
  <g clip-path="url(#clip0_48_927)">
    <path d="M10.181 1.66797H9.8144C9.37248 1.66797 8.94865 1.84352 8.63616 2.15601C8.32367 2.4685 8.14812 2.89233 8.14812 3.33425V3.48422C8.14782 3.77642 8.07068 4.06341 7.92445 4.31639C7.77822 4.56937 7.56803 4.77945 7.31498 4.92555L6.95673 5.13384C6.70342 5.28008 6.41608 5.35708 6.12358 5.35708C5.83109 5.35708 5.54375 5.28008 5.29044 5.13384L5.16547 5.06719C4.78311 4.84662 4.32886 4.78679 3.90243 4.90082C3.476 5.01484 3.11224 5.29341 2.891 5.67538L2.7077 5.99197C2.48714 6.37433 2.4273 6.82858 2.54133 7.25502C2.65536 7.68145 2.93393 8.04521 3.3159 8.26645L3.44087 8.34977C3.69271 8.49516 3.90211 8.70392 4.04827 8.95532C4.19443 9.20671 4.27226 9.49198 4.27401 9.78277V10.2077C4.27518 10.5013 4.19874 10.79 4.05243 11.0446C3.90613 11.2991 3.69515 11.5105 3.44087 11.6573L3.3159 11.7323C2.93393 11.9536 2.65536 12.3173 2.54133 12.7438C2.4273 13.1702 2.48714 13.6244 2.7077 14.0068L2.891 14.3234C3.11224 14.7054 3.476 14.9839 3.90243 15.098C4.32886 15.212 4.78311 15.1521 5.16547 14.9316L5.29044 14.8649C5.54375 14.7187 5.83109 14.6417 6.12358 14.6417C6.41608 14.6417 6.70342 14.7187 6.95673 14.8649L7.31498 15.0732C7.56803 15.2193 7.77822 15.4294 7.92445 15.6824C8.07068 15.9354 8.14782 16.2223 8.14812 16.5146V16.6645C8.14812 17.1064 8.32367 17.5303 8.63616 17.8428C8.94865 18.1552 9.37248 18.3308 9.8144 18.3308H10.181C10.6229 18.3308 11.0467 18.1552 11.3592 17.8428C11.6717 17.5303 11.8473 17.1064 11.8473 16.6645V16.5146C11.8476 16.2223 11.9247 15.9354 12.0709 15.6824C12.2172 15.4294 12.4274 15.2193 12.6804 15.0732L13.0387 14.8649C13.292 14.7187 13.5793 14.6417 13.8718 14.6417C14.1643 14.6417 14.4516 14.7187 14.7049 14.8649L14.8299 14.9316C15.2123 15.1521 15.6665 15.212 16.093 15.098C16.5194 14.9839 16.8832 14.7054 17.1044 14.3234L17.2877 13.9985C17.5082 13.6161 17.5681 13.1619 17.4541 12.7354C17.34 12.309 17.0615 11.9452 16.6795 11.724L16.5545 11.6573C16.3002 11.5105 16.0893 11.2991 15.943 11.0446C15.7967 10.79 15.7202 10.5013 15.7214 10.2077V9.7911C15.7202 9.49748 15.7967 9.20877 15.943 8.9542C16.0893 8.69963 16.3002 8.48824 16.5545 8.34143L16.6795 8.26645C17.0615 8.04521 17.34 7.68145 17.4541 7.25502C17.5681 6.82858 17.5082 6.37433 17.2877 5.99197L17.1044 5.67538C16.8832 5.29341 16.5194 5.01484 16.093 4.90082C15.6665 4.78679 15.2123 4.84662 14.8299 5.06719L14.7049 5.13384C14.4516 5.28008 14.1643 5.35708 13.8718 5.35708C13.5793 5.35708 13.292 5.28008 13.0387 5.13384L12.6804 4.92555C12.4274 4.77945 12.2172 4.56937 12.0709 4.31639C11.9247 4.06341 11.8476 3.77642 11.8473 3.48422V3.33425C11.8473 2.89233 11.6717 2.4685 11.3592 2.15601C11.0467 1.84352 10.6229 1.66797 10.181 1.66797Z" stroke="#99A1AF" stroke-width="1.66628" stroke-linecap="round" stroke-linejoin="round"/>
    <path d="M9.9977 12.4988C11.3781 12.4988 12.4971 11.3798 12.4971 9.99942C12.4971 8.61903 11.3781 7.5 9.9977 7.5C8.61731 7.5 7.49828 8.61903 7.49828 9.99942C7.49828 11.3798 8.61731 12.4988 9.9977 12.4988Z" stroke="#99A1AF" stroke-width="1.66628" stroke-linecap="round" stroke-linejoin="round"/>
  </g>
  <defs>
    <clipPath id="clip0_48_927">
      <rect width="19.9954" height="19.9954" fill="white"/>
    </clipPath>
  </defs>
</svg>