<svg xmlns="http://www.w3.org/2000/svg" width="20" height="20" viewBox="0 0 20 20" fill="none">
  <path d="M7.49824 2.5H3.33253C2.8724 2.5 2.49939 2.87301 2.49939 3.33314V9.16513C2.49939 9.62527 2.8724 9.99828 3.33253 9.99828H7.49824C7.95837 9.99828 8.33138 9.62527 8.33138 9.16513V3.33314C8.33138 2.87301 7.95837 2.5 7.49824 2.5Z" stroke="#99A1AF" stroke-width="1.66628" stroke-linecap="round" stroke-linejoin="round"/>
  <path d="M16.6628 2.5H12.4971C12.037 2.5 11.6639 2.87301 11.6639 3.33314V5.83257C11.6639 6.2927 12.037 6.66571 12.4971 6.66571H16.6628C17.1229 6.66571 17.4959 6.2927 17.4959 5.83257V3.33314C17.4959 2.87301 17.1229 2.5 16.6628 2.5Z" stroke="#99A1AF" stroke-width="1.66628" stroke-linecap="round" stroke-linejoin="round"/>
  <path d="M16.6628 9.99609H12.4971C12.037 9.99609 11.6639 10.3691 11.6639 10.8292V16.6612C11.6639 17.1214 12.037 17.4944 12.4971 17.4944H16.6628C17.1229 17.4944 17.4959 17.1214 17.4959 16.6612V10.8292C17.4959 10.3691 17.1229 9.99609 16.6628 9.99609Z" stroke="#99A1AF" stroke-width="1.66628" stroke-linecap="round" stroke-linejoin="round"/>
  <path d="M7.49824 13.332H3.33253C2.8724 13.332 2.49939 13.705 2.49939 14.1652V16.6646C2.49939 17.1247 2.8724 17.4977 3.33253 17.4977H7.49824C7.95837 17.4977 8.33138 17.1247 8.33138 16.6646V14.1652C8.33138 13.705 7.95837 13.332 7.49824 13.332Z" stroke="#99A1AF" stroke-width="1.66628" stroke-linecap="round" stroke-linejoin="round"/>
</svg>