<svg xmlns="http://www.w3.org/2000/svg" width="20" height="20" viewBox="0 0 20 20" fill="none">
  <path d="M12.4971 1.66797H4.99885C4.55692 1.66797 4.1331 1.84352 3.82061 2.15601C3.50812 2.4685 3.33257 2.89233 3.33257 3.33425V16.6645C3.33257 17.1064 3.50812 17.5303 3.82061 17.8428C4.1331 18.1552 4.55692 18.3308 4.99885 18.3308H14.9965C15.4385 18.3308 15.8623 18.1552 16.1748 17.8428C16.4873 17.5303 16.6628 17.1064 16.6628 16.6645V5.83368L12.4971 1.66797Z" stroke="#99A1AF" stroke-width="1.66628" stroke-linecap="round" stroke-linejoin="round"/>
  <path d="M11.664 1.66797V5.00054C11.664 5.44246 11.8395 5.86629 12.152 6.17878C12.4645 6.49126 12.8883 6.66682 13.3303 6.66682H16.6628" stroke="#99A1AF" stroke-width="1.66628" stroke-linecap="round" stroke-linejoin="round"/>
  <path d="M8.33141 7.5H6.66513" stroke="#99A1AF" stroke-width="1.66628" stroke-linecap="round" stroke-linejoin="round"/>
  <path d="M13.3303 10.832H6.66513" stroke="#99A1AF" stroke-width="1.66628" stroke-linecap="round" stroke-linejoin="round"/>
  <path d="M13.3303 14.1641H6.66513" stroke="#99A1AF" stroke-width="1.66628" stroke-linecap="round" stroke-linejoin="round"/>
</svg>