<svg xmlns="http://www.w3.org/2000/svg" width="32" height="32" viewBox="0 0 32 32" fill="none">
  <path d="M19.9923 2.66406H7.99693C7.28996 2.66406 6.61195 2.94491 6.11204 3.44481C5.61214 3.94471 5.3313 4.62273 5.3313 5.3297V26.6548C5.3313 27.3617 5.61214 28.0397 6.11204 28.5397C6.61195 29.0396 7.28996 29.3204 7.99693 29.3204H23.9907C24.6977 29.3204 25.3757 29.0396 25.8756 28.5397C26.3755 28.0397 26.6564 27.3617 26.6564 26.6548V9.32815L19.9923 2.66406Z" stroke="#BFFF0B" stroke-width="2.66563" stroke-linecap="round" stroke-linejoin="round"/>
  <path d="M18.6594 2.66406V7.99533C18.6594 8.7023 18.9403 9.38031 19.4402 9.88022C19.9401 10.3801 20.6181 10.661 21.3251 10.661H26.6563" stroke="#BFFF0B" stroke-width="2.66563" stroke-linecap="round" stroke-linejoin="round"/>
  <path d="M13.3281 11.9961H10.6625" stroke="#BFFF0B" stroke-width="2.66563" stroke-linecap="round" stroke-linejoin="round"/>
  <path d="M21.325 17.3281H10.6625" stroke="#BFFF0B" stroke-width="2.66563" stroke-linecap="round" stroke-linejoin="round"/>
  <path d="M21.325 22.6562H10.6625" stroke="#BFFF0B" stroke-width="2.66563" stroke-linecap="round" stroke-linejoin="round"/>
</svg>