<svg xmlns="http://www.w3.org/2000/svg" width="20" height="20" viewBox="0 0 20 20" fill="none">
  <path d="M7.49827 2.5H3.33256C2.87243 2.5 2.49942 2.87301 2.49942 3.33314V9.16513C2.49942 9.62527 2.87243 9.99828 3.33256 9.99828H7.49827C7.9584 9.99828 8.33141 9.62527 8.33141 9.16513V3.33314C8.33141 2.87301 7.9584 2.5 7.49827 2.5Z" stroke="#BFFF0B" stroke-width="1.66628" stroke-linecap="round" stroke-linejoin="round"/>
  <path d="M16.6628 2.5H12.4971C12.037 2.5 11.664 2.87301 11.664 3.33314V5.83257C11.664 6.2927 12.037 6.66571 12.4971 6.66571H16.6628C17.123 6.66571 17.496 6.2927 17.496 5.83257V3.33314C17.496 2.87301 17.123 2.5 16.6628 2.5Z" stroke="#BFFF0B" stroke-width="1.66628" stroke-linecap="round" stroke-linejoin="round"/>
  <path d="M16.6628 9.99609H12.4971C12.037 9.99609 11.664 10.3691 11.664 10.8292V16.6612C11.664 17.1214 12.037 17.4944 12.4971 17.4944H16.6628C17.123 17.4944 17.496 17.1214 17.496 16.6612V10.8292C17.496 10.3691 17.123 9.99609 16.6628 9.99609Z" stroke="#BFFF0B" stroke-width="1.66628" stroke-linecap="round" stroke-linejoin="round"/>
  <path d="M7.49827 13.332H3.33256C2.87243 13.332 2.49942 13.705 2.49942 14.1652V16.6646C2.49942 17.1247 2.87243 17.4977 3.33256 17.4977H7.49827C7.9584 17.4977 8.33141 17.1247 8.33141 16.6646V14.1652C8.33141 13.705 7.9584 13.332 7.49827 13.332Z" stroke="#BFFF0B" stroke-width="1.66628" stroke-linecap="round" stroke-linejoin="round"/>
</svg>