<svg xmlns="http://www.w3.org/2000/svg" width="16" height="16" viewBox="0 0 16 16" fill="none">
  <g clip-path="url(#clip0_48_1778)">
    <path d="M1.37417 8.22839C1.31863 8.07877 1.31863 7.91419 1.37417 7.76457C1.9151 6.45298 2.83328 5.33154 4.01233 4.54242C5.19138 3.7533 6.57819 3.33203 7.99694 3.33203C9.41569 3.33203 10.8025 3.7533 11.9815 4.54242C13.1606 5.33154 14.0788 6.45298 14.6197 7.76457C14.6752 7.91419 14.6752 8.07877 14.6197 8.22839C14.0788 9.53998 13.1606 10.6614 11.9815 11.4505C10.8025 12.2397 9.41569 12.6609 7.99694 12.6609C6.57819 12.6609 5.19138 12.2397 4.01233 11.4505C2.83328 10.6614 1.9151 9.53998 1.37417 8.22839Z" stroke="white" stroke-width="1.33282" stroke-linecap="round" stroke-linejoin="round"/>
    <path d="M7.99678 9.99454C9.10093 9.99454 9.99601 9.09946 9.99601 7.99532C9.99601 6.89118 9.10093 5.99609 7.99678 5.99609C6.89264 5.99609 5.99756 6.89118 5.99756 7.99532C5.99756 9.09946 6.89264 9.99454 7.99678 9.99454Z" stroke="white" stroke-width="1.33282" stroke-linecap="round" stroke-linejoin="round"/>
  </g>
  <defs>
    <clipPath id="clip0_48_1778">
      <rect width="15.9938" height="15.9938" fill="white"/>
    </clipPath>
  </defs>
</svg>