<svg width="24" height="24" viewBox="0 0 24 24" fill="none" xmlns="http://www.w3.org/2000/svg">
<path d="M10.2676 20.998C10.4431 21.3021 10.6956 21.5545 10.9996 21.73C11.3037 21.9056 11.6485 21.998 11.9996 21.998C12.3506 21.998 12.6955 21.9056 12.9995 21.73C13.3036 21.5545 13.556 21.3021 13.7316 20.998" stroke="#BFFF0B" stroke-width="1.99984" stroke-linecap="round" stroke-linejoin="round"/>
<path d="M3.26223 15.3249C3.1316 15.4681 3.0454 15.6462 3.0141 15.8374C2.9828 16.0287 3.00776 16.2249 3.08595 16.4023C3.16413 16.5796 3.29216 16.7304 3.45447 16.8363C3.61677 16.9422 3.80636 16.9987 4.00017 16.9988H19.9989C20.1927 16.9989 20.3823 16.9426 20.5447 16.8369C20.7071 16.7312 20.8353 16.5806 20.9137 16.4034C20.9921 16.2262 21.0173 16.03 20.9863 15.8387C20.9552 15.6474 20.8693 15.4693 20.7388 15.3259C19.4089 13.9551 17.9991 12.4982 17.9991 7.99953C17.9991 6.40835 17.367 4.88235 16.2418 3.75722C15.1167 2.63209 13.5907 2 11.9995 2C10.4084 2 8.88236 2.63209 7.75723 3.75722C6.6321 4.88235 6.00001 6.40835 6.00001 7.99953C6.00001 12.4982 4.58912 13.9551 3.26223 15.3249Z" stroke="#BFFF0B" stroke-width="1.99984" stroke-linecap="round" stroke-linejoin="round"/>
</svg>
