<svg width="16" height="16" viewBox="0 0 16 16" fill="none" xmlns="http://www.w3.org/2000/svg">
<path d="M7.99436 8.66059C8.36231 8.66059 8.66059 8.36231 8.66059 7.99436C8.66059 7.62641 8.36231 7.32812 7.99436 7.32812C7.62641 7.32812 7.32812 7.62641 7.32812 7.99436C7.32812 8.36231 7.62641 8.66059 7.99436 8.66059Z" stroke="#6A7282" stroke-width="1.33247" stroke-linecap="round" stroke-linejoin="round"/>
<path d="M7.99436 3.99751C8.36231 3.99751 8.66059 3.69922 8.66059 3.33127C8.66059 2.96332 8.36231 2.66504 7.99436 2.66504C7.62641 2.66504 7.32812 2.96332 7.32812 3.33127C7.32812 3.69922 7.62641 3.99751 7.99436 3.99751Z" stroke="#6A7282" stroke-width="1.33247" stroke-linecap="round" stroke-linejoin="round"/>
<path d="M7.99436 13.3247C8.36231 13.3247 8.66059 13.0264 8.66059 12.6584C8.66059 12.2905 8.36231 11.9922 7.99436 11.9922C7.62641 11.9922 7.32812 12.2905 7.32812 12.6584C7.32812 13.0264 7.62641 13.3247 7.99436 13.3247Z" stroke="#6A7282" stroke-width="1.33247" stroke-linecap="round" stroke-linejoin="round"/>
</svg>
