<svg xmlns="http://www.w3.org/2000/svg" width="16" height="16" viewBox="0 0 16 16" fill="none">
  <!-- 채워진 종이비행기 -->
  <path
    d="M14.6386 1.77377L10.3081 14.4322C10.286 14.4965 10.2448 14.5525 10.19 14.5927C10.1352 14.6329 10.0694 14.6554 10.0015 14.6571C9.93354 14.6589 9.86669 14.6398 9.8099 14.6024C9.75312 14.5651 9.70911 14.5113 9.6838 14.4482L7.56518 9.16363C7.49801 8.99673 7.39774 8.84517 7.27042 8.71807C7.14309 8.59097 6.99135 8.49097 6.82433 8.42411L1.5411 6.30548C1.47802 6.28017 1.42419 6.23617 1.38684 6.17938C1.34949 6.1226 1.3304 6.05574 1.33214 5.9878C1.33388 5.91985 1.35636 5.85406 1.39657 5.79926C1.43678 5.74446 1.49279 5.70327 1.55709 5.68122L14.2155 1.35071C14.2746 1.32938 14.3384 1.32532 14.3997 1.33898C14.461 1.35264 14.5171 1.38346 14.5614 1.42784C14.6058 1.47222 14.6367 1.52833 14.6503 1.58959C14.664 1.65085 14.6599 1.71473 14.6386 1.77377Z"
    fill="#BFFF0B"
  />

  <!-- 가운데 선 -->
  <path
    d="M12.70 3.29L7.99 8.00"
    stroke="#1E2939"
    stroke-width="1"
    stroke-linecap="round"
    stroke-linejoin="round"
  />
</svg>