<svg width="14" height="14" viewBox="0 0 14 14" fill="none" xmlns="http://www.w3.org/2000/svg">
<path d="M6.9964 1.75H2.91511C2.60584 1.75 2.30924 1.87285 2.09056 2.09154C1.87188 2.31022 1.74902 2.60682 1.74902 2.91608V11.0787C1.74902 11.3879 1.87188 11.6845 2.09056 11.9032C2.30924 12.1219 2.60584 12.2448 2.91511 12.2448H11.0777C11.387 12.2448 11.6836 12.1219 11.9022 11.9032C12.1209 11.6845 12.2438 11.3879 12.2438 11.0787V6.99738" stroke="#99A1AF" stroke-width="1.16608" stroke-linecap="round" stroke-linejoin="round"/>
<path d="M10.7135 1.53022C10.9454 1.29828 11.26 1.16797 11.5881 1.16797C11.9161 1.16797 12.2307 1.29828 12.4626 1.53022C12.6946 1.76217 12.8249 2.07676 12.8249 2.40479C12.8249 2.73281 12.6946 3.0474 12.4626 3.27935L7.20767 8.53489C7.06923 8.67321 6.89819 8.77447 6.71033 8.82932L5.03526 9.31908C4.98509 9.33371 4.93191 9.33459 4.88128 9.32162C4.83065 9.30865 4.78445 9.28231 4.74749 9.24535C4.71054 9.2084 4.6842 9.16219 4.67123 9.11157C4.65826 9.06094 4.65914 9.00776 4.67377 8.95759L5.16353 7.28251C5.21864 7.0948 5.32009 6.92398 5.45854 6.78576L10.7135 1.53022Z" stroke="#99A1AF" stroke-width="1.16608" stroke-linecap="round" stroke-linejoin="round"/>
</svg>
