<svg width="16" height="16" viewBox="0 0 16 16" fill="none" xmlns="http://www.w3.org/2000/svg">
<path d="M7.99694 2H3.33208C2.9786 2 2.63959 2.14042 2.38964 2.39037C2.13969 2.64032 1.99927 2.97933 1.99927 3.33282V12.6625C1.99927 13.016 2.13969 13.355 2.38964 13.605C2.63959 13.8549 2.9786 13.9954 3.33208 13.9954H12.6618C13.0153 13.9954 13.3543 13.8549 13.6042 13.605C13.8542 13.355 13.9946 13.016 13.9946 12.6625V7.99768" stroke="white" stroke-width="1.33282" stroke-linecap="round" stroke-linejoin="round"/>
<path d="M12.2453 1.74999C12.5104 1.48488 12.87 1.33594 13.2449 1.33594C13.6198 1.33594 13.9794 1.48488 14.2445 1.74999C14.5096 2.0151 14.6585 2.37468 14.6585 2.7496C14.6585 3.12453 14.5096 3.4841 14.2445 3.74922L8.23815 9.75622C8.07991 9.91432 7.88443 10.0301 7.66971 10.0928L5.75511 10.6525C5.69777 10.6693 5.63699 10.6703 5.57912 10.6554C5.52126 10.6406 5.46844 10.6105 5.42621 10.5683C5.38397 10.526 5.35386 10.4732 5.33904 10.4154C5.32421 10.3575 5.32522 10.2967 5.34194 10.2394L5.90172 8.32478C5.96472 8.11023 6.08068 7.91497 6.23893 7.757L12.2453 1.74999Z" stroke="white" stroke-width="1.33282" stroke-linecap="round" stroke-linejoin="round"/>
</svg>
