<svg width="14" height="14" viewBox="0 0 14 14" fill="none" xmlns="http://www.w3.org/2000/svg">
<g clip-path="url(#clip0_26_870)">
<path d="M1.20221 7.19985C1.15362 7.06894 1.15362 6.92495 1.20221 6.79405C1.67547 5.64654 2.47879 4.66539 3.51034 3.97498C4.54189 3.28458 5.75521 2.91602 6.99648 2.91602C8.23775 2.91602 9.45107 3.28458 10.4826 3.97498C11.5142 4.66539 12.3175 5.64654 12.7908 6.79405C12.8393 6.92495 12.8393 7.06894 12.7908 7.19985C12.3175 8.34736 11.5142 9.32851 10.4826 10.0189C9.45107 10.7093 8.23775 11.0779 6.99648 11.0779C5.75521 11.0779 4.54189 10.7093 3.51034 10.0189C2.47879 9.32851 1.67547 8.34736 1.20221 7.19985Z" stroke="#6A7282" stroke-width="1.16608" stroke-linecap="round" stroke-linejoin="round"/>
<path d="M6.99644 8.7463C7.96245 8.7463 8.74556 7.96319 8.74556 6.99717C8.74556 6.03116 7.96245 5.24805 6.99644 5.24805C6.03042 5.24805 5.24731 6.03116 5.24731 6.99717C5.24731 7.96319 6.03042 8.7463 6.99644 8.7463Z" stroke="#6A7282" stroke-width="1.16608" stroke-linecap="round" stroke-linejoin="round"/>
</g>
<defs>
<clipPath id="clip0_26_870">
<rect width="13.993" height="13.993" fill="white"/>
</clipPath>
</defs>
</svg>
