<svg width="16" height="16" viewBox="0 0 16 16" fill="none" xmlns="http://www.w3.org/2000/svg">
<path d="M11.3324 1.33398H4.66631C2.82551 1.33398 1.33325 2.82625 1.33325 4.66705V11.3332C1.33325 13.174 2.82551 14.6662 4.66631 14.6662H11.3324C13.1732 14.6662 14.6655 13.174 14.6655 11.3332V4.66705C14.6655 2.82625 13.1732 1.33398 11.3324 1.33398Z" stroke="#99A1AF" stroke-width="1.33323" stroke-linecap="round" stroke-linejoin="round"/>
<path d="M10.6659 7.58002C10.7481 8.1348 10.6534 8.7014 10.3951 9.19923C10.1368 9.69705 9.72805 10.1008 9.22708 10.3529C8.72611 10.6051 8.15838 10.6928 7.60465 10.6037C7.05092 10.5146 6.53939 10.2532 6.1428 9.85661C5.74622 9.46002 5.48479 8.94849 5.39568 8.39476C5.30658 7.84103 5.39435 7.2733 5.6465 6.77233C5.89866 6.27136 6.30236 5.86265 6.80018 5.60434C7.29801 5.34603 7.86461 5.25126 8.41939 5.33353C8.9853 5.41745 9.50921 5.68115 9.91373 6.08568C10.3183 6.4902 10.582 7.01411 10.6659 7.58002Z" stroke="#99A1AF" stroke-width="1.33323" stroke-linecap="round" stroke-linejoin="round"/>
<path d="M11.6658 4.33203H11.6724" stroke="#99A1AF" stroke-width="1.33323" stroke-linecap="round" stroke-linejoin="round"/>
</svg>
