<svg width="16" height="16" viewBox="0 0 16 16" fill="none" xmlns="http://www.w3.org/2000/svg">
<g clip-path="url(#clip0_394_271)">
<path d="M7.99707 4.66406V13.9941" stroke="#99A1AF" stroke-width="1.33286" stroke-linecap="round" stroke-linejoin="round"/>
<path d="M1.99944 11.9964C1.82269 11.9964 1.65318 11.9262 1.5282 11.8012C1.40322 11.6763 1.33301 11.5068 1.33301 11.33V2.66643C1.33301 2.48968 1.40322 2.32017 1.5282 2.19519C1.65318 2.07021 1.82269 2 1.99944 2H5.33158C6.03857 2 6.71661 2.28085 7.21653 2.78077C7.71645 3.28069 7.9973 3.95872 7.9973 4.66572C7.9973 3.95872 8.27815 3.28069 8.77807 2.78077C9.27799 2.28085 9.95602 2 10.663 2H13.9952C14.1719 2 14.3414 2.07021 14.4664 2.19519C14.5914 2.32017 14.6616 2.48968 14.6616 2.66643V11.33C14.6616 11.5068 14.5914 11.6763 14.4664 11.8012C14.3414 11.9262 14.1719 11.9964 13.9952 11.9964H9.99659C9.46634 11.9964 8.95782 12.2071 8.58288 12.582C8.20794 12.957 7.9973 13.4655 7.9973 13.9957C7.9973 13.4655 7.78666 12.957 7.41172 12.582C7.03678 12.2071 6.52826 11.9964 5.99801 11.9964H1.99944Z" stroke="#99A1AF" stroke-width="1.33286" stroke-linecap="round" stroke-linejoin="round"/>
</g>
<defs>
<clipPath id="clip0_394_271">
<rect width="15.9943" height="15.9943" fill="white"/>
</clipPath>
</defs>
</svg>
