<svg width="16" height="16" viewBox="0 0 16 16" fill="none" xmlns="http://www.w3.org/2000/svg">
<g clip-path="url(#clip0_61_860)">
<path d="M14.6571 11.2723V13.271C14.6579 13.4565 14.6199 13.6402 14.5456 13.8102C14.4712 13.9802 14.3622 14.1328 14.2255 14.2583C14.0887 14.3837 13.9273 14.4792 13.7516 14.5386C13.5758 14.5981 13.3895 14.6202 13.2048 14.6035C11.1546 14.3807 9.18536 13.6802 7.45516 12.5581C5.84542 11.5352 4.48065 10.1705 3.45776 8.56073C2.33181 6.82266 1.63111 4.84381 1.41242 2.78448C1.39577 2.60025 1.41767 2.41457 1.47671 2.23926C1.53576 2.06395 1.63066 1.90285 1.75537 1.76623C1.88009 1.6296 2.03189 1.52045 2.2011 1.4457C2.37032 1.37096 2.55324 1.33227 2.73823 1.3321H4.73693C5.06025 1.32891 5.37371 1.44341 5.61886 1.65424C5.86401 1.86507 6.02414 2.15786 6.06939 2.47802C6.15375 3.11765 6.3102 3.74568 6.53576 4.35013C6.62539 4.58859 6.64479 4.84775 6.59166 5.0969C6.53852 5.34605 6.41508 5.57474 6.23595 5.75589L5.38983 6.602C6.33825 8.26995 7.71929 9.65098 9.38723 10.5994L10.2334 9.75329C10.4145 9.57416 10.6432 9.45072 10.8923 9.39758C11.1415 9.34444 11.4006 9.36384 11.6391 9.45348C12.2436 9.67903 12.8716 9.83548 13.5112 9.91984C13.8349 9.9655 14.1304 10.1285 14.3417 10.3779C14.553 10.6272 14.6652 10.9456 14.6571 11.2723Z" stroke="#BFFF0B" stroke-width="1.33247" stroke-linecap="round" stroke-linejoin="round"/>
</g>
<defs>
<clipPath id="clip0_61_860">
<rect width="15.9896" height="15.9896" fill="white"/>
</clipPath>
</defs>
</svg>
