<svg width="16" height="16" viewBox="0 0 16 16" fill="none" xmlns="http://www.w3.org/2000/svg">
<g clip-path="url(#clip0_386_637)">
<path d="M1.66664 4.66655C1.20096 6.8642 1.20096 9.13504 1.66664 11.3327C1.72783 11.5559 1.84605 11.7593 2.00969 11.9229C2.17332 12.0865 2.37672 12.2047 2.5999 12.2659C6.17523 12.8584 9.82369 12.8584 13.399 12.2659C13.6222 12.2047 13.8256 12.0865 13.9892 11.9229C14.1529 11.7593 14.2711 11.5559 14.3323 11.3327C14.798 9.13504 14.798 6.8642 14.3323 4.66655C14.2711 4.44338 14.1529 4.23997 13.9892 4.07634C13.8256 3.91271 13.6222 3.79448 13.399 3.7333C9.82368 3.14098 6.17524 3.14098 2.5999 3.7333C2.37672 3.79448 2.17332 3.91271 2.00969 4.07634C1.84605 4.23997 1.72783 4.44338 1.66664 4.66655Z" stroke="#99A1AF" stroke-width="1.33323" stroke-linecap="round" stroke-linejoin="round"/>
<path d="M6.66602 9.99968L9.99908 7.99984L6.66602 6V9.99968Z" stroke="#99A1AF" stroke-width="1.33323" stroke-linecap="round" stroke-linejoin="round"/>
</g>
<defs>
<clipPath id="clip0_386_637">
<rect width="15.9987" height="15.9987" fill="white"/>
</clipPath>
</defs>
</svg>
