<svg width="40" height="40" viewBox="0 0 40 40" fill="none" xmlns="http://www.w3.org/2000/svg">
<path d="M0 14C0 6.26801 6.26801 0 14 0H26C33.732 0 40 6.26801 40 14V26C40 33.732 33.732 40 26 40H14C6.26801 40 0 33.732 0 26V14Z" fill="#1E2939" fill-opacity="0.6"/>
<path d="M22.3996 22.3996L17.5996 17.5996" stroke="white" stroke-width="2" stroke-linecap="round" stroke-linejoin="round"/>
<path d="M26.6574 29.4854C26.2824 29.8605 25.7737 30.0713 25.2432 30.0714C24.7128 30.0715 24.204 29.8609 23.8289 29.4859C23.4537 29.1109 23.2429 28.6022 23.2428 28.0717C23.2427 27.5413 23.4534 27.0325 23.8284 26.6574L22.0614 28.4254C21.6862 28.8005 21.1774 29.0113 20.6469 29.0113C20.1163 29.0113 19.6075 28.8005 19.2324 28.4254C18.8572 28.0502 18.6465 27.5414 18.6465 27.0109C18.6465 26.4803 18.8572 25.9715 19.2324 25.5964L25.5964 19.2324C25.9715 18.8572 26.4803 18.6465 27.0109 18.6465C27.5414 18.6465 28.0502 18.8572 28.4254 19.2324C28.8005 19.6075 29.0113 20.1163 29.0113 20.6469C29.0113 21.1774 28.8005 21.6862 28.4254 22.0614L26.6574 23.8284C27.0325 23.4534 27.5413 23.2427 28.0717 23.2428C28.6022 23.2429 29.1109 23.4537 29.4859 23.8289C29.8609 24.204 30.0715 24.7128 30.0714 25.2432C30.0713 25.7737 29.8605 26.2824 29.4854 26.6574L26.6574 29.4854Z" stroke="white" stroke-width="2" stroke-linecap="round" stroke-linejoin="round"/>
<path d="M29.4996 29.4996L28.0996 28.0996" stroke="white" stroke-width="2" stroke-linecap="round" stroke-linejoin="round"/>
<path d="M11.9 11.9L10.5 10.5" stroke="white" stroke-width="2" stroke-linecap="round" stroke-linejoin="round"/>
<path d="M14.4047 20.7678C14.0296 21.1429 13.5208 21.3537 12.9902 21.3537C12.4597 21.3537 11.9509 21.1429 11.5757 20.7678C11.2006 20.3926 10.9898 19.8838 10.9898 19.3533C10.9898 18.8227 11.2006 18.3139 11.5757 17.9388L13.3437 16.1718C13.158 16.3575 12.9375 16.5047 12.6948 16.6052C12.4521 16.7057 12.192 16.7574 11.9294 16.7573C11.3989 16.7572 10.8903 16.5464 10.5152 16.1713C10.3295 15.9855 10.1823 15.765 10.0818 15.5223C9.98133 15.2796 9.92964 15.0196 9.92969 14.7569C9.92978 14.2265 10.1406 13.7178 10.5157 13.3428L13.3437 10.5148C13.7188 10.1396 14.2274 9.9288 14.7579 9.92871C15.0205 9.92866 15.2806 9.98035 15.5233 10.0808C15.766 10.1813 15.9865 10.3286 16.1722 10.5143C16.358 10.7 16.5054 10.9204 16.6059 11.163C16.7065 11.4057 16.7582 11.6658 16.7583 11.9284C16.7583 12.1911 16.7067 12.4511 16.6062 12.6938C16.5057 12.9365 16.3584 13.157 16.1727 13.3428L17.9397 11.5748C18.3149 11.1996 18.8237 10.9889 19.3542 10.9889C19.8848 10.9889 20.3936 11.1996 20.7687 11.5748C21.1439 11.9499 21.3546 12.4587 21.3546 12.9893C21.3546 13.5198 21.1439 14.0286 20.7687 14.4038L14.4047 20.7678Z" stroke="white" stroke-width="2" stroke-linecap="round" stroke-linejoin="round"/>
</svg>
