<svg width="32" height="32" viewBox="0 0 32 32" fill="none" xmlns="http://www.w3.org/2000/svg">
<path d="M28.9752 24L18.3085 5.33331C18.0759 4.92291 17.7387 4.58156 17.3311 4.34407C16.9235 4.10657 16.4602 3.98145 15.9885 3.98145C15.5168 3.98145 15.0535 4.10657 14.646 4.34407C14.2384 4.58156 13.9011 4.92291 13.6685 5.33331L3.00186 24C2.76677 24.4071 2.6435 24.8692 2.64454 25.3393C2.64558 25.8095 2.7709 26.271 3.00779 26.6771C3.24468 27.0832 3.58472 27.4194 3.99345 27.6517C4.40218 27.8841 4.86507 28.0042 5.33519 28H26.6685C27.1364 27.9995 27.5959 27.8759 28.0009 27.6417C28.4059 27.4074 28.7422 27.0708 28.9759 26.6655C29.2096 26.2602 29.3326 25.8005 29.3325 25.3326C29.3323 24.8648 29.2091 24.4052 28.9752 24Z" stroke="#FF6467" stroke-width="2.66667" stroke-linecap="round" stroke-linejoin="round"/>
<path d="M16 12V17.3333" stroke="#FF6467" stroke-width="2.66667" stroke-linecap="round" stroke-linejoin="round"/>
<path d="M16 22.667H16.0133" stroke="#FF6467" stroke-width="2.66667" stroke-linecap="round" stroke-linejoin="round"/>
</svg>
