<svg width="40" height="40" viewBox="0 0 40 40" fill="none" xmlns="http://www.w3.org/2000/svg">
<path d="M0 14C0 6.26801 6.26801 0 14 0H26C33.732 0 40 6.26801 40 14V26C40 33.732 33.732 40 26 40H14C6.26801 40 0 33.732 0 26V14Z" fill="#1E2939" fill-opacity="0.6"/>
<path d="M24 29V27C24 25.9391 23.5786 24.9217 22.8284 24.1716C22.0783 23.4214 21.0609 23 20 23H14C12.9391 23 11.9217 23.4214 11.1716 24.1716C10.4214 24.9217 10 25.9391 10 27V29" stroke="#BFFF0B" stroke-width="2" stroke-linecap="round" stroke-linejoin="round"/>
<path d="M17 19C19.2091 19 21 17.2091 21 15C21 12.7909 19.2091 11 17 11C14.7909 11 13 12.7909 13 15C13 17.2091 14.7909 19 17 19Z" stroke="#BFFF0B" stroke-width="2" stroke-linecap="round" stroke-linejoin="round"/>
<path d="M30 28.9999V26.9999C29.9993 26.1136 29.7044 25.2527 29.1614 24.5522C28.6184 23.8517 27.8581 23.3515 27 23.1299" stroke="#BFFF0B" stroke-width="2" stroke-linecap="round" stroke-linejoin="round"/>
<path d="M24 11.1299C24.8604 11.3502 25.623 11.8506 26.1676 12.5522C26.7122 13.2538 27.0078 14.1167 27.0078 15.0049C27.0078 15.8931 26.7122 16.756 26.1676 17.4576C25.623 18.1592 24.8604 18.6596 24 18.8799" stroke="#BFFF0B" stroke-width="2" stroke-linecap="round" stroke-linejoin="round"/>
</svg>
