<svg width="15" height="15" viewBox="0 0 15 15" fill="none" xmlns="http://www.w3.org/2000/svg">
<path d="M13.9267 10.6137V12.6137C13.9275 12.7994 13.8894 12.9832 13.8151 13.1533C13.7407 13.3234 13.6316 13.4761 13.4948 13.6016C13.358 13.7272 13.1964 13.8227 13.0205 13.8822C12.8447 13.9417 12.6583 13.9638 12.4734 13.9471C10.4219 13.7242 8.45138 13.0232 6.72005 11.9004C5.10927 10.8768 3.7436 9.51117 2.72005 7.90039C1.59337 6.16119 0.892209 4.18105 0.67338 2.12039C0.65672 1.93603 0.67863 1.75023 0.737713 1.57481C0.796797 1.39938 0.89176 1.23818 1.01656 1.10147C1.14135 0.964759 1.29325 0.85553 1.46257 0.780738C1.6319 0.705947 1.81494 0.667231 2.00005 0.667057H4.00005C4.32358 0.663873 4.63724 0.778443 4.88255 0.989412C5.12787 1.20038 5.2881 1.49335 5.33338 1.81372C5.4178 2.45377 5.57435 3.08221 5.80005 3.68706C5.88974 3.92567 5.90915 4.185 5.85598 4.43431C5.80281 4.68362 5.67929 4.91246 5.50005 5.09372L4.65338 5.94039C5.60242 7.60942 6.98435 8.99135 8.65338 9.94039L9.50005 9.09372C9.68131 8.91448 9.91015 8.79096 10.1595 8.73779C10.4088 8.68462 10.6681 8.70403 10.9067 8.79372C11.5116 9.01942 12.14 9.17598 12.78 9.26039C13.1039 9.30608 13.3996 9.46919 13.6111 9.71872C13.8225 9.96825 13.9348 10.2868 13.9267 10.6137Z" stroke="#BFFF0B" stroke-width="1.33333" stroke-linecap="round" stroke-linejoin="round"/>
</svg>
