<svg width="40" height="40" viewBox="0 0 40 40" fill="none" xmlns="http://www.w3.org/2000/svg">
<path d="M0 14C0 6.26801 6.26801 0 14 0H26C33.732 0 40 6.26801 40 14V26C40 33.732 33.732 40 26 40H14C6.26801 40 0 33.732 0 26V14Z" fill="#1E2939" fill-opacity="0.6"/>
<path d="M28 13H12C10.8954 13 10 13.8954 10 15V25C10 26.1046 10.8954 27 12 27H28C29.1046 27 30 26.1046 30 25V15C30 13.8954 29.1046 13 28 13Z" stroke="white" stroke-width="2" stroke-linecap="round" stroke-linejoin="round"/>
<path d="M10 18H30" stroke="white" stroke-width="2" stroke-linecap="round" stroke-linejoin="round"/>
</svg>
