<svg width="16" height="16" viewBox="0 0 16 16" fill="none" xmlns="http://www.w3.org/2000/svg">
<g clip-path="url(#clip0_61_865)">
<path d="M13.3247 6.6619C13.3247 9.9884 9.63441 13.4528 8.39522 14.5228C8.27978 14.6096 8.13925 14.6565 7.99481 14.6565C7.85038 14.6565 7.70985 14.6096 7.59441 14.5228C6.35521 13.4528 2.66495 9.9884 2.66495 6.6619C2.66495 5.24833 3.22649 3.89266 4.22603 2.89311C5.22557 1.89357 6.58125 1.33203 7.99481 1.33203C9.40838 1.33203 10.7641 1.89357 11.7636 2.89311C12.7631 3.89266 13.3247 5.24833 13.3247 6.6619Z" stroke="#BFFF0B" stroke-width="1.33247" stroke-linecap="round" stroke-linejoin="round"/>
<path d="M7.99479 8.66146C9.09865 8.66146 9.99349 7.76661 9.99349 6.66276C9.99349 5.55891 9.09865 4.66406 7.99479 4.66406C6.89094 4.66406 5.99609 5.55891 5.99609 6.66276C5.99609 7.76661 6.89094 8.66146 7.99479 8.66146Z" stroke="#BFFF0B" stroke-width="1.33247" stroke-linecap="round" stroke-linejoin="round"/>
</g>
<defs>
<clipPath id="clip0_61_865">
<rect width="15.9896" height="15.9896" fill="white"/>
</clipPath>
</defs>
</svg>
