<svg width="24" height="24" viewBox="0 0 24 24" fill="none" xmlns="http://www.w3.org/2000/svg">
<mask id="path-1-inside-1_386_602" fill="white">
<path d="M0 4C0 1.79086 1.79086 0 4 0H19.9981C22.2072 0 23.9981 1.79086 23.9981 4V19.9981C23.9981 22.2072 22.2072 23.9981 19.9981 23.9981H4C1.79086 23.9981 0 22.2072 0 19.9981V4Z"/>
</mask>
<path d="M4 0V1.62527H19.9981V0V-1.62527H4V0ZM23.9981 4H22.3728V19.9981H23.9981H25.6234V4H23.9981ZM19.9981 23.9981V22.3728H4V23.9981V25.6234H19.9981V23.9981ZM0 19.9981H1.62527V4H0H-1.62527V19.9981H0ZM4 23.9981V22.3728C2.68847 22.3728 1.62527 21.3096 1.62527 19.9981H0H-1.62527C-1.62527 23.1048 0.893244 25.6234 4 25.6234V23.9981ZM23.9981 19.9981H22.3728C22.3728 21.3096 21.3096 22.3728 19.9981 22.3728V23.9981V25.6234C23.1048 25.6234 25.6234 23.1048 25.6234 19.9981H23.9981ZM19.9981 0V1.62527C21.3096 1.62527 22.3728 2.68847 22.3728 4H23.9981H25.6234C25.6234 0.893251 23.1048 -1.62527 19.9981 -1.62527V0ZM4 0V-1.62527C0.893251 -1.62527 -1.62527 0.893244 -1.62527 4H0H1.62527C1.62527 2.68847 2.68847 1.62527 4 1.62527V0Z" fill="black" mask="url(#path-1-inside-1_386_602)"/>
</svg>
