<svg width="32" height="32" viewBox="0 0 32 32" fill="none" xmlns="http://www.w3.org/2000/svg">
<path d="M26.6638 17.3317C26.6638 23.9976 21.9976 27.3306 16.4515 29.2637C16.1611 29.3621 15.8457 29.3574 15.5583 29.2504C9.99892 27.3306 5.33276 23.9976 5.33276 17.3317V7.99936C5.33276 7.64578 5.47322 7.30668 5.72325 7.05666C5.97327 6.80664 6.31237 6.66618 6.66595 6.66618C9.33233 6.66618 12.6653 5.06635 14.985 3.03991C15.2675 2.7986 15.6268 2.66602 15.9983 2.66602C16.3698 2.66602 16.729 2.7986 17.0115 3.03991C19.3446 5.07968 22.6642 6.66618 25.3306 6.66618C25.6842 6.66618 26.0233 6.80664 26.2733 7.05666C26.5233 7.30668 26.6638 7.64578 26.6638 7.99936V17.3317Z" stroke="#BFFF0B" stroke-width="2.66637" stroke-linecap="round" stroke-linejoin="round"/>
</svg>
