<svg width="635" height="400" viewBox="0 0 635 400" fill="none" xmlns="http://www.w3.org/2000/svg">
<mask id="path-1-inside-1_61_680" fill="white">
<path d="M178.701 32.0202C180.519 18.8276 192.789 8.13281 206.106 8.13281H474.765C488.083 8.13281 497.405 18.8276 495.587 32.0202L449.285 367.981C447.467 381.173 435.197 391.868 421.88 391.868H153.22C139.903 391.868 130.581 381.173 132.399 367.981L178.701 32.0202Z"/>
</mask>
<path d="M178.701 32.0202C180.519 18.8276 192.789 8.13281 206.106 8.13281H474.765C488.083 8.13281 497.405 18.8276 495.587 32.0202L449.285 367.981C447.467 381.173 435.197 391.868 421.88 391.868H153.22C139.903 391.868 130.581 381.173 132.399 367.981L178.701 32.0202Z" fill="url(#paint0_linear_61_680)"/>
<path d="M206.106 8.13281L204.582 19.1918H473.241L474.765 8.13281L476.29 -2.92616H207.63L206.106 8.13281ZM495.587 32.0202H484.423L438.121 367.981H449.285H460.449L506.75 32.0202H495.587ZM421.88 391.868L423.404 380.809H154.744L153.22 391.868L151.696 402.927H420.356L421.88 391.868ZM132.399 367.981H143.563L189.864 32.0202H178.701H167.537L121.236 367.981H132.399ZM153.22 391.868L154.744 380.809C147.593 380.809 142.586 375.066 143.563 367.981H132.399H121.236C118.576 387.281 132.213 402.927 151.696 402.927L153.22 391.868ZM449.285 367.981H438.121C437.145 375.066 430.556 380.809 423.404 380.809L421.88 391.868L420.356 402.927C439.838 402.927 457.789 387.281 460.449 367.981H449.285ZM474.765 8.13281L473.241 19.1918C480.393 19.1918 485.399 24.9353 484.423 32.0202H495.587H506.75C509.41 12.7199 495.772 -2.92616 476.29 -2.92616L474.765 8.13281ZM206.106 8.13281L207.63 -2.92616C188.147 -2.92616 170.197 12.7199 167.537 32.0202H178.701H189.864C190.841 24.9353 197.43 19.1918 204.582 19.1918L206.106 8.13281Z" fill="#BFFF0B" mask="url(#path-1-inside-1_61_680)"/>
<mask id="path-3-inside-2_61_680" fill="white">
<path d="M203.222 50.9308C204.434 42.1357 212.614 35.0059 221.492 35.0059H451.972C460.85 35.0059 467.065 42.1357 465.853 50.9308L424.872 348.286C423.66 357.081 415.48 364.21 406.602 364.21H176.122C167.243 364.21 161.029 357.081 162.241 348.286L203.222 50.9308Z"/>
</mask>
<path d="M221.492 35.0059L221.34 36.1118H451.82L451.972 35.0059L452.125 33.9H221.644L221.492 35.0059ZM465.853 50.9308H464.737L423.756 348.286H424.872H425.988L466.969 50.9308H465.853ZM406.602 364.21L406.754 363.105H176.274L176.122 364.21L175.969 365.316H406.449L406.602 364.21ZM162.241 348.286H163.357L204.338 50.9308H203.222H202.106L161.125 348.286H162.241ZM176.122 364.21L176.274 363.105C168.012 363.105 162.229 356.47 163.357 348.286H162.241H161.125C159.828 357.691 166.475 365.316 175.969 365.316L176.122 364.21ZM424.872 348.286H423.756C422.628 356.47 415.016 363.105 406.754 363.105L406.602 364.21L406.449 365.316C415.944 365.316 424.692 357.691 425.988 348.286H424.872ZM451.972 35.0059L451.82 36.1118C460.082 36.1118 465.865 42.7465 464.737 50.9308H465.853H466.969C468.266 41.5249 461.619 33.9 452.125 33.9L451.972 35.0059ZM221.492 35.0059L221.644 33.9C212.15 33.9 203.402 41.5249 202.106 50.9308H203.222H204.338C205.466 42.7465 213.078 36.1118 221.34 36.1118L221.492 35.0059Z" fill="#BFFF0B" fill-opacity="0.3" mask="url(#path-3-inside-2_61_680)"/>
<mask id="path-5-inside-3_61_680" fill="white">
<path d="M538.121 28.6378C543.589 23.1704 552.453 23.1704 557.92 28.6378L583.376 54.0936C588.843 59.561 588.843 68.4253 583.376 73.8926L557.92 99.3485C552.453 104.816 543.589 104.816 538.121 99.3485L512.665 73.8926C507.198 68.4253 507.198 59.561 512.665 54.0936L538.121 28.6378Z"/>
</mask>
<path d="M557.92 28.6378L555.563 30.9948L581.019 56.4506L583.376 54.0936L585.733 51.7366L560.277 26.2808L557.92 28.6378ZM583.376 73.8926L581.019 71.5356L555.563 96.9914L557.92 99.3485L560.277 101.705L585.733 76.2496L583.376 73.8926ZM538.121 99.3485L540.478 96.9914L515.022 71.5356L512.665 73.8926L510.308 76.2496L535.764 101.705L538.121 99.3485ZM512.665 54.0936L515.022 56.4506L540.478 30.9948L538.121 28.6378L535.764 26.2808L510.308 51.7366L512.665 54.0936ZM512.665 73.8926L515.022 71.5356C510.857 67.37 510.857 60.6162 515.022 56.4506L512.665 54.0936L510.308 51.7366C503.539 58.5057 503.539 69.4805 510.308 76.2496L512.665 73.8926ZM557.92 99.3485L555.563 96.9914C551.398 101.157 544.644 101.157 540.478 96.9914L538.121 99.3485L535.764 101.705C542.533 108.475 553.508 108.475 560.277 101.705L557.92 99.3485ZM583.376 54.0936L581.019 56.4506C585.185 60.6162 585.185 67.37 581.019 71.5356L583.376 73.8926L585.733 76.2496C592.502 69.4805 592.502 58.5057 585.733 51.7366L583.376 54.0936ZM557.92 28.6378L560.277 26.2808C553.508 19.5117 542.533 19.5117 535.764 26.2808L538.121 28.6378L540.478 30.9948C544.644 26.8292 551.398 26.8292 555.563 30.9948L557.92 28.6378Z" fill="#BFFF0B" fill-opacity="0.4" mask="url(#path-5-inside-3_61_680)"/>
<path d="M31.9966 328.02C31.9966 314.769 42.7386 304.027 55.9896 304.027C69.2406 304.027 79.9827 314.769 79.9827 328.02C79.9827 341.271 69.2406 352.013 55.9896 352.013C42.7386 352.013 31.9966 341.271 31.9966 328.02Z" fill="#BFFF0B" fill-opacity="0.2"/>
<rect width="32" height="32" transform="translate(612.005 193.371) rotate(45)" fill="#BFFF0B" fill-opacity="0.3"/>
<defs>
<linearGradient id="paint0_linear_61_680" x1="181.993" y1="8.13281" x2="510.62" y2="324.801" gradientUnits="userSpaceOnUse">
<stop stop-color="#BFFF0B" stop-opacity="0.03"/>
<stop offset="1" stop-color="#BFFF0B" stop-opacity="0.08"/>
</linearGradient>
</defs>
</svg>
