<svg width="32" height="32" viewBox="0 0 32 32" fill="none" xmlns="http://www.w3.org/2000/svg">
<path d="M7.99913 11.998H5.99935C5.11539 11.998 4.26764 11.6468 3.64259 11.0218C3.01753 10.3967 2.66638 9.54896 2.66638 8.665C2.66638 7.78104 3.01753 6.93329 3.64259 6.30824C4.26764 5.68318 5.11539 5.33203 5.99935 5.33203H7.99913" stroke="#BFFF0B" stroke-width="2.66637" stroke-linecap="round" stroke-linejoin="round"/>
<path d="M23.9974 11.998H25.9972C26.8811 11.998 27.7289 11.6468 28.3539 11.0218C28.979 10.3967 29.3301 9.54896 29.3301 8.665C29.3301 7.78104 28.979 6.93329 28.3539 6.30824C27.7289 5.68318 26.8811 5.33203 25.9972 5.33203H23.9974" stroke="#BFFF0B" stroke-width="2.66637" stroke-linecap="round" stroke-linejoin="round"/>
<path d="M5.33275 29.3301H26.6637" stroke="#BFFF0B" stroke-width="2.66637" stroke-linecap="round" stroke-linejoin="round"/>
<path d="M13.3319 19.5449V22.6646C13.3319 23.3978 12.7053 23.9711 12.0387 24.2777C10.4655 24.9977 9.33231 26.9841 9.33231 29.3305" stroke="#BFFF0B" stroke-width="2.66637" stroke-linecap="round" stroke-linejoin="round"/>
<path d="M18.6646 19.5449V22.6646C18.6646 23.3978 19.2912 23.9711 19.9578 24.2777C21.531 24.9977 22.6642 26.9841 22.6642 29.3305" stroke="#BFFF0B" stroke-width="2.66637" stroke-linecap="round" stroke-linejoin="round"/>
<path d="M23.9974 2.66602H7.99913V11.9983C7.99913 14.1198 8.84189 16.1544 10.342 17.6546C11.8421 19.1547 13.8768 19.9975 15.9983 19.9975C18.1198 19.9975 20.1544 19.1547 21.6545 17.6546C23.1546 16.1544 23.9974 14.1198 23.9974 11.9983V2.66602Z" stroke="#BFFF0B" stroke-width="2.66637" stroke-linecap="round" stroke-linejoin="round"/>
</svg>
