<svg width="48" height="48" viewBox="0 0 48 48" fill="none" xmlns="http://www.w3.org/2000/svg">
<path d="M31.9907 41.9887V37.9899C31.9907 35.8688 31.1481 33.8345 29.6483 32.3347C28.1484 30.8348 26.1142 29.9922 23.993 29.9922H11.9965C9.87541 29.9922 7.84116 30.8348 6.34131 32.3347C4.84145 33.8345 3.99884 35.8688 3.99884 37.9899V41.9887" stroke="#BFFF0B" stroke-width="3.99884" stroke-linecap="round" stroke-linejoin="round"/>
<path d="M17.9948 21.9934C22.4118 21.9934 25.9925 18.4127 25.9925 13.9957C25.9925 9.57873 22.4118 5.99805 17.9948 5.99805C13.5778 5.99805 9.99713 9.57873 9.99713 13.9957C9.99713 18.4127 13.5778 21.9934 17.9948 21.9934Z" stroke="#BFFF0B" stroke-width="3.99884" stroke-linecap="round" stroke-linejoin="round"/>
<path d="M43.9873 41.9886V37.9897C43.986 36.2177 43.3962 34.4963 42.3105 33.0958C41.2248 31.6952 39.7048 30.695 37.989 30.252" stroke="#BFFF0B" stroke-width="3.99884" stroke-linecap="round" stroke-linejoin="round"/>
<path d="M31.9907 6.25781C33.7111 6.69829 35.2359 7.6988 36.3247 9.10161C37.4136 10.5044 38.0047 12.2297 38.0047 14.0056C38.0047 15.7814 37.4136 17.5067 36.3247 18.9095C35.2359 20.3123 33.7111 21.3128 31.9907 21.7533" stroke="#BFFF0B" stroke-width="3.99884" stroke-linecap="round" stroke-linejoin="round"/>
</svg>
