<svg width="20" height="20" viewBox="0 0 20 20" fill="none" xmlns="http://www.w3.org/2000/svg">
<g clip-path="url(#clip0_198_215)">
<path d="M18.3318 9.99966H16.2653C15.9012 9.99888 15.5468 10.1174 15.2563 10.3371C14.9659 10.5568 14.7555 10.8656 14.6571 11.2162L12.699 18.1823C12.6863 18.2256 12.66 18.2636 12.624 18.2907C12.5879 18.3177 12.544 18.3323 12.499 18.3323C12.4539 18.3323 12.41 18.3177 12.374 18.2907C12.3379 18.2636 12.3116 18.2256 12.299 18.1823L7.69935 1.81698C7.68673 1.77371 7.66042 1.7357 7.62436 1.70866C7.5883 1.68161 7.54444 1.66699 7.49937 1.66699C7.4543 1.66699 7.41044 1.68161 7.37438 1.70866C7.33832 1.7357 7.31201 1.77371 7.29939 1.81698L5.34121 8.78309C5.24327 9.13236 5.03405 9.44013 4.74531 9.6597C4.45657 9.87926 4.10408 9.99862 3.74134 9.99966H1.6665" stroke="#BFFF0B" stroke-width="1.66653" stroke-linecap="round" stroke-linejoin="round"/>
</g>
<defs>
<clipPath id="clip0_198_215">
<rect width="19.9984" height="19.9984" fill="white"/>
</clipPath>
</defs>
</svg>
