<svg width="24" height="24" viewBox="0 0 24 24" fill="none" xmlns="http://www.w3.org/2000/svg">
<path d="M21.9984 11.9992H19.5186C19.0816 11.9983 18.6563 12.1405 18.3078 12.4041C17.9593 12.6678 17.7068 13.0383 17.5888 13.4591L15.239 21.8184C15.2238 21.8704 15.1922 21.916 15.149 21.9484C15.1057 21.9809 15.0531 21.9984 14.999 21.9984C14.9449 21.9984 14.8923 21.9809 14.849 21.9484C14.8057 21.916 14.7741 21.8704 14.759 21.8184L9.23943 2.17999C9.22428 2.12806 9.1927 2.08245 9.14943 2.05C9.10616 2.01754 9.05353 2 8.99945 2C8.94536 2 8.89273 2.01754 8.84946 2.05C8.80619 2.08245 8.77461 2.12806 8.75947 2.17999L6.40965 10.5393C6.29213 10.9584 6.04106 11.3278 5.69457 11.5913C5.34808 11.8547 4.92509 11.998 4.4898 11.9992H2" stroke="#BFFF0B" stroke-width="1.99984" stroke-linecap="round" stroke-linejoin="round"/>
</svg>
