<svg width="20" height="20" viewBox="0 0 20 20" fill="none" xmlns="http://www.w3.org/2000/svg">
<path d="M12.499 1.66699H4.9996C4.55761 1.66699 4.13372 1.84257 3.82119 2.15511C3.50865 2.46764 3.33307 2.89153 3.33307 3.33353V16.6658C3.33307 17.1078 3.50865 17.5317 3.82119 17.8442C4.13372 18.1567 4.55761 18.3323 4.9996 18.3323H14.9988C15.4408 18.3323 15.8647 18.1567 16.1772 17.8442C16.4898 17.5317 16.6653 17.1078 16.6653 16.6658V5.83333L12.499 1.66699Z" stroke="#BFFF0B" stroke-width="1.66653" stroke-linecap="round" stroke-linejoin="round"/>
<path d="M11.6657 1.66699V5.00006C11.6657 5.44205 11.8413 5.86594 12.1538 6.17848C12.4664 6.49101 12.8903 6.66659 13.3322 6.66659H16.6653" stroke="#BFFF0B" stroke-width="1.66653" stroke-linecap="round" stroke-linejoin="round"/>
<path d="M8.33267 7.49902H6.66614" stroke="#BFFF0B" stroke-width="1.66653" stroke-linecap="round" stroke-linejoin="round"/>
<path d="M13.3323 10.832H6.66614" stroke="#BFFF0B" stroke-width="1.66653" stroke-linecap="round" stroke-linejoin="round"/>
<path d="M13.3323 14.166H6.66614" stroke="#BFFF0B" stroke-width="1.66653" stroke-linecap="round" stroke-linejoin="round"/>
</svg>
