<svg width="20" height="20" viewBox="0 0 20 20" fill="none" xmlns="http://www.w3.org/2000/svg">
<path d="M9.99922 2.5H4.16635C3.72436 2.5 3.30047 2.67558 2.98793 2.98812C2.6754 3.30065 2.49982 3.72454 2.49982 4.16653V15.8323C2.49982 16.2743 2.6754 16.6981 2.98793 17.0107C3.30047 17.3232 3.72436 17.4988 4.16635 17.4988H15.8321C16.2741 17.4988 16.698 17.3232 17.0105 17.0107C17.323 16.6981 17.4986 16.2743 17.4986 15.8323V9.9994" stroke="#BFFF0B" stroke-width="1.66653" stroke-linecap="round" stroke-linejoin="round"/>
<path d="M15.3113 2.18765C15.6427 1.85615 16.0924 1.66992 16.5612 1.66992C17.03 1.66992 17.4796 1.85615 17.8111 2.18765C18.1425 2.51914 18.3288 2.96874 18.3288 3.43755C18.3288 3.90635 18.1425 4.35595 17.8111 4.68745L10.3008 12.1985C10.103 12.3962 9.85853 12.5409 9.59005 12.6193L7.19607 13.3193C7.12437 13.3402 7.04837 13.3414 6.97601 13.3229C6.90366 13.3044 6.83762 13.2667 6.78481 13.2139C6.732 13.1611 6.69435 13.095 6.67582 13.0227C6.65728 12.9503 6.65853 12.8743 6.67945 12.8026L7.37939 10.4087C7.45816 10.1404 7.60315 9.89625 7.80102 9.69871L15.3113 2.18765Z" stroke="#BFFF0B" stroke-width="1.66653" stroke-linecap="round" stroke-linejoin="round"/>
</svg>
