<svg width="16" height="16" viewBox="0 0 16 16" fill="none" xmlns="http://www.w3.org/2000/svg">
<path d="M9.99918 1.33301H3.99967C3.64607 1.33301 3.30696 1.47347 3.05694 1.7235C2.80691 1.97353 2.66644 2.31264 2.66644 2.66623V13.332C2.66644 13.6856 2.80691 14.0247 3.05694 14.2748C3.30696 14.5248 3.64607 14.6653 3.99967 14.6653H11.999C12.3526 14.6653 12.6917 14.5248 12.9418 14.2748C13.1918 14.0247 13.3322 13.6856 13.3322 13.332V4.66607L9.99918 1.33301Z" stroke="#99A1AF" stroke-width="1.33323" stroke-linecap="round" stroke-linejoin="round"/>
<path d="M9.33258 1.33301V3.99946C9.33258 4.35305 9.47305 4.69216 9.72307 4.94219C9.9731 5.19222 10.3122 5.33268 10.6658 5.33268H13.3323" stroke="#99A1AF" stroke-width="1.33323" stroke-linecap="round" stroke-linejoin="round"/>
<path d="M6.66611 6H5.33289" stroke="#99A1AF" stroke-width="1.33323" stroke-linecap="round" stroke-linejoin="round"/>
<path d="M10.6658 8.66602H5.33289" stroke="#99A1AF" stroke-width="1.33323" stroke-linecap="round" stroke-linejoin="round"/>
<path d="M10.6658 11.332H5.33289" stroke="#99A1AF" stroke-width="1.33323" stroke-linecap="round" stroke-linejoin="round"/>
</svg>
