<svg width="20" height="20" viewBox="0 0 20 20" fill="none" xmlns="http://www.w3.org/2000/svg">
<path d="M10.1825 1.66699H9.8159C9.37391 1.66699 8.95002 1.84257 8.63748 2.15511C8.32495 2.46764 8.14937 2.89153 8.14937 3.33353V3.48351C8.14907 3.77576 8.07192 4.06279 7.92567 4.31581C7.77941 4.56883 7.56919 4.77894 7.3161 4.92506L6.95779 5.13338C6.70445 5.27965 6.41706 5.35665 6.12453 5.35665C5.83199 5.35665 5.54461 5.27965 5.29126 5.13338L5.16627 5.06672C4.78386 4.84612 4.32954 4.78628 3.90304 4.90032C3.47654 5.01437 3.11273 5.29298 2.89145 5.675L2.70813 5.99165C2.48754 6.37406 2.42769 6.82838 2.54174 7.25488C2.65578 7.68137 2.9344 8.04519 3.31642 8.26646L3.44141 8.34979C3.69329 8.4952 3.90272 8.704 4.0489 8.95543C4.19508 9.20687 4.27292 9.49218 4.27468 9.78301V10.208C4.27584 10.5016 4.19939 10.7904 4.05306 11.045C3.90674 11.2996 3.69573 11.511 3.44141 11.6579L3.31642 11.7329C2.9344 11.9541 2.65578 12.3179 2.54174 12.7444C2.42769 13.1709 2.48754 13.6253 2.70813 14.0077L2.89145 14.3243C3.11273 14.7063 3.47654 14.9849 3.90304 15.099C4.32954 15.213 4.78386 15.1532 5.16627 14.9326L5.29126 14.8659C5.54461 14.7197 5.83199 14.6427 6.12453 14.6427C6.41706 14.6427 6.70445 14.7197 6.95779 14.8659L7.3161 15.0743C7.56919 15.2204 7.77941 15.4305 7.92567 15.6835C8.07192 15.9365 8.14907 16.2236 8.14937 16.5158V16.6658C8.14937 17.1078 8.32495 17.5317 8.63748 17.8442C8.95002 18.1567 9.37391 18.3323 9.8159 18.3323H10.1825C10.6245 18.3323 11.0484 18.1567 11.361 17.8442C11.6735 17.5317 11.8491 17.1078 11.8491 16.6658V16.5158C11.8494 16.2236 11.9265 15.9365 12.0728 15.6835C12.219 15.4305 12.4292 15.2204 12.6823 15.0743L13.0406 14.8659C13.294 14.7197 13.5814 14.6427 13.8739 14.6427C14.1664 14.6427 14.4538 14.7197 14.7072 14.8659L14.8322 14.9326C15.2146 15.1532 15.6689 15.213 16.0954 15.099C16.5219 14.9849 16.8857 14.7063 17.107 14.3243L17.2903 13.9993C17.5109 13.6169 17.5707 13.1626 17.4567 12.7361C17.3427 12.3096 17.064 11.9458 16.682 11.7245L16.557 11.6579C16.3027 11.511 16.0917 11.2996 15.9454 11.045C15.799 10.7904 15.7226 10.5016 15.7238 10.208V9.79134C15.7226 9.49768 15.799 9.20893 15.9454 8.95432C16.0917 8.69971 16.3027 8.48829 16.557 8.34146L16.682 8.26646C17.064 8.04519 17.3427 7.68137 17.4567 7.25488C17.5707 6.82838 17.5109 6.37406 17.2903 5.99165L17.107 5.675C16.8857 5.29298 16.5219 5.01437 16.0954 4.90032C15.6689 4.78628 15.2146 4.84612 14.8322 5.06672L14.7072 5.13338C14.4538 5.27965 14.1664 5.35665 13.8739 5.35665C13.5814 5.35665 13.294 5.27965 13.0406 5.13338L12.6823 4.92506C12.4292 4.77894 12.219 4.56883 12.0728 4.31581C11.9265 4.06279 11.8494 3.77576 11.8491 3.48351V3.33353C11.8491 2.89153 11.6735 2.46764 11.361 2.15511C11.0484 1.84257 10.6245 1.66699 10.1825 1.66699Z" stroke="#FF6467" stroke-width="1.66653" stroke-linecap="round" stroke-linejoin="round"/>
<path d="M9.99919 12.4986C11.3798 12.4986 12.499 11.3794 12.499 9.99882C12.499 8.61822 11.3798 7.49902 9.99919 7.49902C8.61859 7.49902 7.49939 8.61822 7.49939 9.99882C7.49939 11.3794 8.61859 12.4986 9.99919 12.4986Z" stroke="#FF6467" stroke-width="1.66653" stroke-linecap="round" stroke-linejoin="round"/>
</svg>
