<svg width="11" height="14" viewBox="0 0 11 14" fill="none" xmlns="http://www.w3.org/2000/svg">
<path d="M2.99977 8.33304C3.44176 8.33304 3.86565 8.15746 4.17819 7.84492C4.49072 7.53239 4.6663 7.1085 4.6663 6.6665C4.6663 5.74658 4.33299 5.33328 3.99969 4.66667C3.28508 3.23812 3.85037 1.96422 5.33291 0.666992C5.66622 2.33352 6.66614 3.93339 7.99936 4.99997C9.33259 6.06655 9.9992 7.33312 9.9992 8.66634C9.9992 9.27913 9.8785 9.88591 9.644 10.4521C9.4095 11.0182 9.06578 11.5326 8.63248 11.9659C8.19917 12.3992 7.68476 12.7429 7.11862 12.9774C6.55248 13.2119 5.9457 13.3326 5.33291 13.3326C4.72013 13.3326 4.11334 13.2119 3.5472 12.9774C2.98106 12.7429 2.46665 12.3992 2.03335 11.9659C1.60005 11.5326 1.25633 11.0182 1.02183 10.4521C0.787323 9.88591 0.666626 9.27913 0.666626 8.66634C0.666626 7.89774 0.955269 7.13713 1.33324 6.6665C1.33324 7.1085 1.50882 7.53239 1.82135 7.84492C2.13389 8.15746 2.55778 8.33304 2.99977 8.33304Z" stroke="#FF6900" stroke-width="1.33323" stroke-linecap="round" stroke-linejoin="round"/>
</svg>
