<svg width="20" height="20" viewBox="0 0 20 20" fill="none" xmlns="http://www.w3.org/2000/svg">
<path d="M13.33 17.4959V15.8296C13.33 14.9458 12.9789 14.0981 12.3539 13.4732C11.7289 12.8482 10.8813 12.4971 9.99743 12.4971H4.99858C4.11473 12.4971 3.26708 12.8482 2.6421 13.4732C2.01712 14.0981 1.66602 14.9458 1.66602 15.8296V17.4959" stroke="#99A1AF" stroke-width="1.66628" stroke-linecap="round" stroke-linejoin="round"/>
<path d="M7.49858 9.16416C9.33911 9.16416 10.8311 7.67212 10.8311 5.83159C10.8311 3.99106 9.33911 2.49902 7.49858 2.49902C5.65806 2.49902 4.16602 3.99106 4.16602 5.83159C4.16602 7.67212 5.65806 9.16416 7.49858 9.16416Z" stroke="#99A1AF" stroke-width="1.66628" stroke-linecap="round" stroke-linejoin="round"/>
<path d="M18.3295 17.496V15.8297C18.329 15.0913 18.0832 14.374 17.6308 13.7905C17.1784 13.2069 16.545 12.7901 15.8301 12.6055" stroke="#99A1AF" stroke-width="1.66628" stroke-linecap="round" stroke-linejoin="round"/>
<path d="M13.3301 2.60742C14.0469 2.79096 14.6823 3.20787 15.136 3.79241C15.5898 4.37695 15.836 5.09587 15.836 5.83585C15.836 6.57582 15.5898 7.29474 15.136 7.87928C14.6823 8.46382 14.0469 8.88073 13.3301 9.06427" stroke="#99A1AF" stroke-width="1.66628" stroke-linecap="round" stroke-linejoin="round"/>
</svg>
