<svg width="40" height="40" viewBox="0 0 40 40" fill="none" xmlns="http://www.w3.org/2000/svg">
<mask id="path-1-inside-1_1514_474" fill="white">
<path d="M0 19.9951C0 8.95212 8.95212 0 19.9951 0C31.0381 0 39.9902 8.95212 39.9902 19.9951C39.9902 31.0381 31.0381 39.9902 19.9951 39.9902C8.95212 39.9902 0 31.0381 0 19.9951Z"/>
</mask>
<path d="M0 19.9951C0 8.95212 8.95212 0 19.9951 0C31.0381 0 39.9902 8.95212 39.9902 19.9951C39.9902 31.0381 31.0381 39.9902 19.9951 39.9902C8.95212 39.9902 0 31.0381 0 19.9951Z" fill="#FB2C36" fill-opacity="0.1"/>
<path d="M0 19.9951M39.9902 19.9951M39.9902 19.9951M0 19.9951M19.9951 0M39.9902 19.9951M19.9951 39.9902M0 19.9951M19.9951 39.9902V39.2128C9.3815 39.2128 0.777453 30.6087 0.777453 19.9951H0H-0.777453C-0.777453 31.4675 8.52274 40.7677 19.9951 40.7677V39.9902ZM39.9902 19.9951H39.2128C39.2128 30.6087 30.6087 39.2128 19.9951 39.2128V39.9902V40.7677C31.4675 40.7677 40.7677 31.4675 40.7677 19.9951H39.9902ZM19.9951 0V0.777453C30.6087 0.777453 39.2128 9.3815 39.2128 19.9951H39.9902H40.7677C40.7677 8.52274 31.4675 -0.777453 19.9951 -0.777453V0ZM19.9951 0V-0.777453C8.52274 -0.777453 -0.777453 8.52274 -0.777453 19.9951H0H0.777453C0.777453 9.3815 9.3815 0.777453 19.9951 0.777453V0Z" fill="#FB2C36" fill-opacity="0.3" mask="url(#path-1-inside-1_1514_474)"/>
<path d="M24.9936 14.9971L14.9961 24.9946" stroke="#FF6467" stroke-width="1.66626" stroke-linecap="round" stroke-linejoin="round"/>
<path d="M14.9961 14.9971L24.9936 24.9946" stroke="#FF6467" stroke-width="1.66626" stroke-linecap="round" stroke-linejoin="round"/>
</svg>
