<svg width="16" height="16" viewBox="0 0 16 16" fill="none" xmlns="http://www.w3.org/2000/svg">
<g clip-path="url(#clip0_147_1296)">
<path d="M11.3282 1.33301H4.66407C2.82384 1.33301 1.33203 2.82481 1.33203 4.66505V11.3291C1.33203 13.1694 2.82384 14.6612 4.66407 14.6612H11.3282C13.1684 14.6612 14.6602 13.1694 14.6602 11.3291V4.66505C14.6602 2.82481 13.1684 1.33301 11.3282 1.33301Z" stroke="#6A7282" stroke-width="1.33282" stroke-linecap="round" stroke-linejoin="round"/>
<path d="M10.6618 7.57737C10.7441 8.13198 10.6493 8.69841 10.3911 9.19608C10.1329 9.69375 9.72427 10.0973 9.22345 10.3494C8.72263 10.6015 8.15508 10.6892 7.60152 10.6001C7.04796 10.5111 6.53658 10.2497 6.14012 9.85326C5.74366 9.4568 5.48231 8.94542 5.39323 8.39186C5.30416 7.8383 5.3919 7.27075 5.64397 6.76993C5.89605 6.26911 6.29963 5.86053 6.7973 5.60229C7.29497 5.34406 7.8614 5.24933 8.41602 5.33157C8.98175 5.41546 9.50549 5.67908 9.9099 6.08348C10.3143 6.48789 10.5779 7.01164 10.6618 7.57737Z" stroke="#6A7282" stroke-width="1.33282" stroke-linecap="round" stroke-linejoin="round"/>
<path d="M11.6621 4.33203H11.6688" stroke="#6A7282" stroke-width="1.33282" stroke-linecap="round" stroke-linejoin="round"/>
</g>
<defs>
<clipPath id="clip0_147_1296">
<rect width="15.9938" height="15.9938" fill="white"/>
</clipPath>
</defs>
</svg>
