<svg width="20" height="20" viewBox="0 0 20 20" fill="none" xmlns="http://www.w3.org/2000/svg">
<path d="M9.99828 2.49902H4.16628C3.72436 2.49902 3.30053 2.67458 2.98804 2.98707C2.67555 3.29956 2.5 3.72338 2.5 4.16531V15.8293C2.5 16.2712 2.67555 16.695 2.98804 17.0075C3.30053 17.32 3.72436 17.4956 4.16628 17.4956H15.8303C16.2722 17.4956 16.696 17.32 17.0085 17.0075C17.321 16.695 17.4966 16.2712 17.4966 15.8293V9.9973" stroke="black" stroke-width="1.66628" stroke-linecap="round" stroke-linejoin="round"/>
<path d="M15.3093 2.18659C15.6407 1.85515 16.0903 1.66895 16.559 1.66895C17.0277 1.66895 17.4773 1.85515 17.8087 2.18659C18.1402 2.51804 18.3264 2.96757 18.3264 3.43631C18.3264 3.90504 18.1402 4.35457 17.8087 4.68602L10.2996 12.196C10.1018 12.3936 9.85738 12.5383 9.58894 12.6167L7.19532 13.3165C7.12363 13.3374 7.04764 13.3387 6.97529 13.3202C6.90295 13.3016 6.83693 13.264 6.78412 13.2112C6.73132 13.1584 6.69368 13.0924 6.67514 13.02C6.65661 12.9477 6.65786 12.8717 6.67877 12.8L7.37861 10.4064C7.45737 10.1381 7.60234 9.89404 7.80018 9.69653L15.3093 2.18659Z" stroke="black" stroke-width="1.66628" stroke-linecap="round" stroke-linejoin="round"/>
</svg>
