<svg width="20" height="20" viewBox="0 0 20 20" fill="none" xmlns="http://www.w3.org/2000/svg">
<path d="M18.1033 14.997L11.4381 3.333C11.2928 3.07656 11.0821 2.86327 10.8274 2.71487C10.5727 2.56647 10.2832 2.48828 9.98847 2.48828C9.69371 2.48828 9.40423 2.56647 9.14956 2.71487C8.89488 2.86327 8.68413 3.07656 8.5388 3.333L1.87367 14.997C1.72677 15.2514 1.64974 15.5401 1.65039 15.8339C1.65105 16.1277 1.72935 16.416 1.87737 16.6698C2.0254 16.9235 2.23788 17.1336 2.49327 17.2788C2.74867 17.424 3.03791 17.4991 3.33167 17.4964H16.6619C16.9543 17.4961 17.2414 17.4189 17.4945 17.2725C17.7475 17.1262 17.9577 16.9158 18.1037 16.6625C18.2497 16.4093 18.3266 16.122 18.3265 15.8297C18.3264 15.5373 18.2494 15.2502 18.1033 14.997Z" stroke="#51A2FF" stroke-width="1.66628" stroke-linecap="round" stroke-linejoin="round"/>
<path d="M9.99805 7.49805V10.8306" stroke="#51A2FF" stroke-width="1.66628" stroke-linecap="round" stroke-linejoin="round"/>
<path d="M9.99805 14.1631H10.0064" stroke="#51A2FF" stroke-width="1.66628" stroke-linecap="round" stroke-linejoin="round"/>
</svg>
