<svg width="24" height="24" viewBox="0 0 24 24" fill="none" xmlns="http://www.w3.org/2000/svg">
<path d="M11.9988 3H4.99974C4.46938 3 3.96073 3.21069 3.58571 3.58571C3.21069 3.96073 3 4.46938 3 4.99974V18.9979C3 19.5283 3.21069 20.0369 3.58571 20.412C3.96073 20.787 4.46938 20.9977 4.99974 20.9977H18.9979C19.5283 20.9977 20.0369 20.787 20.412 20.412C20.787 20.0369 20.9977 19.5283 20.9977 18.9979V11.9988" stroke="#BFFF0B" stroke-width="1.99974" stroke-linecap="round" stroke-linejoin="round"/>
<path d="M18.3718 2.62515C18.7696 2.22737 19.3091 2.00391 19.8716 2.00391C20.4341 2.00391 20.9736 2.22737 21.3714 2.62515C21.7692 3.02292 21.9927 3.56242 21.9927 4.12495C21.9927 4.68749 21.7692 5.22699 21.3714 5.62476L12.3596 14.6376C12.1222 14.8748 11.8289 15.0485 11.5067 15.1425L8.63406 15.9824C8.54802 16.0075 8.45682 16.009 8.37 15.9868C8.28318 15.9645 8.20394 15.9194 8.14057 15.856C8.0772 15.7926 8.03202 15.7134 8.00978 15.6266C7.98754 15.5397 7.98904 15.4485 8.01414 15.3625L8.85403 12.4899C8.94854 12.168 9.12253 11.875 9.35996 11.638L18.3718 2.62515Z" stroke="#BFFF0B" stroke-width="1.99974" stroke-linecap="round" stroke-linejoin="round"/>
</svg>
