<svg width="16" height="16" viewBox="0 0 16 16" fill="none" xmlns="http://www.w3.org/2000/svg">
<g clip-path="url(#clip0_147_1305)">
<path d="M7.99609 4.66504V13.9948" stroke="#6A7282" stroke-width="1.33282" stroke-linecap="round" stroke-linejoin="round"/>
<path d="M1.99844 11.9951C1.8217 11.9951 1.65219 11.9249 1.52722 11.8C1.40224 11.675 1.33203 11.5055 1.33203 11.3287V2.66543C1.33203 2.48869 1.40224 2.31919 1.52722 2.19421C1.65219 2.06923 1.8217 1.99902 1.99844 1.99902H5.33048C6.03745 1.99902 6.71547 2.27987 7.21537 2.77977C7.71527 3.27967 7.99611 3.95769 7.99611 4.66466C7.99611 3.95769 8.27696 3.27967 8.77686 2.77977C9.27676 2.27987 9.95478 1.99902 10.6617 1.99902H13.9938C14.1705 1.99902 14.34 2.06923 14.465 2.19421C14.59 2.31919 14.6602 2.48869 14.6602 2.66543V11.3287C14.6602 11.5055 14.59 11.675 14.465 11.8C14.34 11.9249 14.1705 11.9951 13.9938 11.9951H9.99534C9.46511 11.9951 8.9566 12.2058 8.58167 12.5807C8.20675 12.9556 7.99611 13.4641 7.99611 13.9944C7.99611 13.4641 7.78548 12.9556 7.41056 12.5807C7.03563 12.2058 6.52712 11.9951 5.99689 11.9951H1.99844Z" stroke="#6A7282" stroke-width="1.33282" stroke-linecap="round" stroke-linejoin="round"/>
</g>
<defs>
<clipPath id="clip0_147_1305">
<rect width="15.9938" height="15.9938" fill="white"/>
</clipPath>
</defs>
</svg>
