<svg width="48" height="48" viewBox="0 0 48 48" fill="none" xmlns="http://www.w3.org/2000/svg">
<mask id="path-1-inside-1_1514_119" fill="white">
<path d="M0 23.9978C0 10.7442 10.7442 0 23.9978 0C37.2514 0 47.9956 10.7442 47.9956 23.9978C47.9956 37.2514 37.2514 47.9956 23.9978 47.9956C10.7442 47.9956 0 37.2514 0 23.9978Z"/>
</mask>
<path d="M0 23.9978C0 10.7442 10.7442 0 23.9978 0C37.2514 0 47.9956 10.7442 47.9956 23.9978C47.9956 37.2514 37.2514 47.9956 23.9978 47.9956C10.7442 47.9956 0 37.2514 0 23.9978Z" fill="#BFFF0B" fill-opacity="0.1"/>
<path d="M0 23.9978M47.9956 23.9978M47.9956 23.9978M0 23.9978M23.9978 0M47.9956 23.9978M23.9978 47.9956M0 23.9978M23.9978 47.9956V47.2181C11.1735 47.2181 0.777453 36.822 0.777453 23.9978H0H-0.777453C-0.777453 37.6808 10.3148 48.773 23.9978 48.773V47.9956ZM47.9956 23.9978H47.2181C47.2181 36.822 36.822 47.2181 23.9978 47.2181V47.9956V48.773C37.6808 48.773 48.773 37.6808 48.773 23.9978H47.9956ZM23.9978 0V0.777453C36.822 0.777453 47.2181 11.1735 47.2181 23.9978H47.9956H48.773C48.773 10.3148 37.6808 -0.777453 23.9978 -0.777453V0ZM23.9978 0V-0.777453C10.3148 -0.777453 -0.777453 10.3148 -0.777453 23.9978H0H0.777453C0.777453 11.1735 11.1735 0.777453 23.9978 0.777453V0Z" fill="#BFFF0B" fill-opacity="0.3" mask="url(#path-1-inside-1_1514_119)"/>
<path d="M30.9952 32.995V30.9957C30.9952 29.9352 30.5739 28.9181 29.824 28.1682C29.0741 27.4184 28.057 26.9971 26.9965 26.9971H20.9986C19.9381 26.9971 18.9211 27.4184 18.1712 28.1682C17.4213 28.9181 17 29.9352 17 30.9957V32.995" stroke="#BFFF0B" stroke-width="1.99931" stroke-linecap="round" stroke-linejoin="round"/>
<path d="M23.9986 22.9982C26.207 22.9982 27.9972 21.208 27.9972 18.9996C27.9972 16.7912 26.207 15.001 23.9986 15.001C21.7902 15.001 20 16.7912 20 18.9996C20 21.208 21.7902 22.9982 23.9986 22.9982Z" stroke="#BFFF0B" stroke-width="1.99931" stroke-linecap="round" stroke-linejoin="round"/>
</svg>
