<svg width="16" height="16" viewBox="0 0 16 16" fill="none" xmlns="http://www.w3.org/2000/svg">
<path d="M9.99651 1.33301H3.99883C3.64535 1.33301 3.30634 1.47343 3.05639 1.72338C2.80644 1.97333 2.66602 2.31234 2.66602 2.66582V13.3284C2.66602 13.6818 2.80644 14.0209 3.05639 14.2708C3.30634 14.5208 3.64535 14.6612 3.99883 14.6612H11.9957C12.3492 14.6612 12.6882 14.5208 12.9382 14.2708C13.1881 14.0209 13.3285 13.6818 13.3285 13.3284V4.66505L9.99651 1.33301Z" stroke="#99A1AF" stroke-width="1.33282" stroke-linecap="round" stroke-linejoin="round"/>
<path d="M9.33008 1.33301V3.99864C9.33008 4.35213 9.4705 4.69113 9.72045 4.94109C9.9704 5.19104 10.3094 5.33146 10.6629 5.33146H13.3285" stroke="#99A1AF" stroke-width="1.33282" stroke-linecap="round" stroke-linejoin="round"/>
<path d="M6.66485 5.99805H5.33203" stroke="#99A1AF" stroke-width="1.33282" stroke-linecap="round" stroke-linejoin="round"/>
<path d="M10.6633 8.66309H5.33203" stroke="#99A1AF" stroke-width="1.33282" stroke-linecap="round" stroke-linejoin="round"/>
<path d="M10.6633 11.3291H5.33203" stroke="#99A1AF" stroke-width="1.33282" stroke-linecap="round" stroke-linejoin="round"/>
</svg>
