<svg width="16" height="16" viewBox="0 0 16 16" fill="none" xmlns="http://www.w3.org/2000/svg">
<g clip-path="url(#clip0_18_57)">
<path d="M7.6804 1.52953C7.70961 1.47052 7.75472 1.42086 7.81066 1.38613C7.86659 1.35141 7.93111 1.33301 7.99695 1.33301C8.06278 1.33301 8.12731 1.35141 8.18324 1.38613C8.23917 1.42086 8.28429 1.47052 8.31349 1.52953L9.85289 4.64765C9.95431 4.85288 10.104 5.03044 10.2891 5.16509C10.4743 5.29973 10.6893 5.38744 10.9158 5.42069L14.3585 5.92449C14.4237 5.93394 14.485 5.96146 14.5354 6.00393C14.5858 6.04639 14.6233 6.10212 14.6437 6.1648C14.6641 6.22748 14.6665 6.29462 14.6508 6.35861C14.635 6.42261 14.6016 6.48091 14.5544 6.52692L12.0647 8.95132C11.9005 9.11132 11.7777 9.30883 11.7067 9.52685C11.6358 9.74486 11.6189 9.97685 11.6575 10.2028L12.2453 13.6282C12.2568 13.6934 12.2498 13.7605 12.225 13.8219C12.2002 13.8833 12.1586 13.9365 12.1051 13.9754C12.0515 14.0143 11.9881 14.0373 11.922 14.0419C11.856 14.0465 11.7899 14.0325 11.7315 14.0014L8.65403 12.3833C8.45125 12.2768 8.22565 12.2212 7.99661 12.2212C7.76758 12.2212 7.54198 12.2768 7.3392 12.3833L4.2624 14.0014C4.20397 14.0323 4.13804 14.0462 4.0721 14.0415C4.00616 14.0368 3.94286 14.0137 3.8894 13.9748C3.83594 13.936 3.79447 13.8829 3.76969 13.8216C3.74492 13.7603 3.73784 13.6933 3.74926 13.6282L4.33637 10.2035C4.37515 9.97741 4.35835 9.74528 4.28741 9.52713C4.21647 9.30898 4.09353 9.11136 3.92919 8.95132L1.43949 6.52759C1.3919 6.48163 1.35818 6.42323 1.34217 6.35904C1.32615 6.29485 1.32849 6.22745 1.34891 6.16452C1.36933 6.1016 1.40701 6.04567 1.45767 6.00312C1.50832 5.96056 1.56991 5.93309 1.63541 5.92382L5.07741 5.42069C5.30416 5.3877 5.5195 5.3001 5.70489 5.16544C5.89028 5.03078 6.04018 4.85309 6.14167 4.64765L7.6804 1.52953Z" fill="#BFFF0B" stroke="#BFFF0B" stroke-width="1.33282" stroke-linecap="round" stroke-linejoin="round"/>
</g>
<defs>
<clipPath id="clip0_18_57">
<rect width="15.9938" height="15.9938" fill="white"/>
</clipPath>
</defs>
</svg>
