<svg width="20" height="20" viewBox="0 0 20 20" fill="none" xmlns="http://www.w3.org/2000/svg">
<mask id="path-1-inside-1_563_1998" fill="white">
<path d="M0 9.99756C0 4.47606 4.47606 0 9.99756 0C15.5191 0 19.9951 4.47606 19.9951 9.99756C19.9951 15.5191 15.5191 19.9951 9.99756 19.9951C4.47606 19.9951 0 15.5191 0 9.99756Z"/>
</mask>
<path d="M0 9.99756M19.9951 9.99756M19.9951 9.99756M0 9.99756M9.99756 0M19.9951 9.99756M9.99756 19.9951M0 9.99756M9.99756 19.9951V18.4402C5.33481 18.4402 1.55491 14.6603 1.55491 9.99756H0H-1.55491C-1.55491 16.3778 3.61731 21.55 9.99756 21.55V19.9951ZM19.9951 9.99756H18.4402C18.4402 14.6603 14.6603 18.4402 9.99756 18.4402V19.9951V21.55C16.3778 21.55 21.55 16.3778 21.55 9.99756H19.9951ZM9.99756 0V1.55491C14.6603 1.55491 18.4402 5.33481 18.4402 9.99756H19.9951H21.55C21.55 3.61731 16.3778 -1.55491 9.99756 -1.55491V0ZM9.99756 0V-1.55491C3.61731 -1.55491 -1.55491 3.61731 -1.55491 9.99756H0H1.55491C1.55491 5.33481 5.33481 1.55491 9.99756 1.55491V0Z" fill="#99A1AF" mask="url(#path-1-inside-1_563_1998)"/>
<path d="M6.00098 9.99757C6.00098 7.79031 7.79031 6.00098 9.99757 6.00098C12.2048 6.00098 13.9942 7.79031 13.9942 9.99757C13.9942 12.2048 12.2048 13.9942 9.99757 13.9942C7.79031 13.9942 6.00098 12.2048 6.00098 9.99757Z" fill="#99A1AF"/>
</svg>
