<svg width="16" height="16" viewBox="0 0 16 16" fill="none" xmlns="http://www.w3.org/2000/svg">
<g clip-path="url(#clip0_73_1064)">
<path d="M10.6593 13.9906V12.6581C10.6593 11.9513 10.3785 11.2735 9.87876 10.7737C9.37899 10.2739 8.70115 9.99316 7.99436 9.99316H3.99696C3.29018 9.99316 2.61234 10.2739 2.11257 10.7737C1.6128 11.2735 1.33203 11.9513 1.33203 12.6581V13.9906" stroke="#BFFF0B" stroke-width="1.33247" stroke-linecap="round" stroke-linejoin="round"/>
<path d="M5.99696 7.32889C7.46877 7.32889 8.6619 6.13576 8.6619 4.66396C8.6619 3.19215 7.46877 1.99902 5.99696 1.99902C4.52516 1.99902 3.33203 3.19215 3.33203 4.66396C3.33203 6.13576 4.52516 7.32889 5.99696 7.32889Z" stroke="#BFFF0B" stroke-width="1.33247" stroke-linecap="round" stroke-linejoin="round"/>
<path d="M14.6569 13.9909V12.6584C14.6565 12.0679 14.4599 11.4943 14.0982 11.0277C13.7364 10.561 13.2299 10.2277 12.6582 10.0801" stroke="#BFFF0B" stroke-width="1.33247" stroke-linecap="round" stroke-linejoin="round"/>
<path d="M10.6602 2.08496C11.2334 2.23173 11.7415 2.56512 12.1043 3.03255C12.4671 3.49999 12.6641 4.07489 12.6641 4.66662C12.6641 5.25834 12.4671 5.83324 12.1043 6.30068C11.7415 6.76811 11.2334 7.1015 10.6602 7.24827" stroke="#BFFF0B" stroke-width="1.33247" stroke-linecap="round" stroke-linejoin="round"/>
</g>
<defs>
<clipPath id="clip0_73_1064">
<rect width="15.9896" height="15.9896" fill="white"/>
</clipPath>
</defs>
</svg>
