<svg width="16" height="16" viewBox="0 0 16 16" fill="none" xmlns="http://www.w3.org/2000/svg">
<g clip-path="url(#clip0_206_494)">
<path d="M10.6602 8.66115L14.1399 10.981C14.1901 11.0144 14.2483 11.0335 14.3085 11.0364C14.3687 11.0393 14.4285 11.0258 14.4817 10.9973C14.5348 10.9689 14.5792 10.9266 14.6102 10.8749C14.6412 10.8232 14.6575 10.7641 14.6576 10.7038V5.24337C14.6576 5.18476 14.6421 5.12718 14.6128 5.07645C14.5834 5.02571 14.5412 4.98362 14.4904 4.95443C14.4395 4.92523 14.3819 4.90996 14.3233 4.91016C14.2647 4.91036 14.2072 4.92602 14.1565 4.95556L10.6602 6.99557" stroke="#BFFF0B" stroke-width="1.33247" stroke-linecap="round" stroke-linejoin="round"/>
<path d="M9.32683 3.99707H2.6645C1.9286 3.99707 1.33203 4.59364 1.33203 5.32954V10.6594C1.33203 11.3953 1.9286 11.9919 2.6645 11.9919H9.32683C10.0627 11.9919 10.6593 11.3953 10.6593 10.6594V5.32954C10.6593 4.59364 10.0627 3.99707 9.32683 3.99707Z" stroke="#BFFF0B" stroke-width="1.33247" stroke-linecap="round" stroke-linejoin="round"/>
</g>
<defs>
<clipPath id="clip0_206_494">
<rect width="15.9896" height="15.9896" fill="white"/>
</clipPath>
</defs>
</svg>
