<svg width="48" height="48" viewBox="0 0 48 48" fill="none" xmlns="http://www.w3.org/2000/svg">
<path d="M39.9884 19.9944C39.9884 29.9775 28.9136 40.3745 25.1947 43.5856C24.8482 43.8461 24.4265 43.9869 23.993 43.9869C23.5596 43.9869 23.1378 43.8461 22.7914 43.5856C19.0725 40.3745 7.99768 29.9775 7.99768 19.9944C7.99768 15.7522 9.6829 11.6837 12.6826 8.68396C15.6823 5.68425 19.7508 3.99902 23.993 3.99902C28.2353 3.99902 32.3038 5.68425 35.3035 8.68396C38.3032 11.6837 39.9884 15.7522 39.9884 19.9944Z" stroke="#BFFF0B" stroke-width="3.99884" stroke-linecap="round" stroke-linejoin="round"/>
<path d="M23.993 25.9926C27.3058 25.9926 29.9913 23.3071 29.9913 19.9944C29.9913 16.6816 27.3058 13.9961 23.993 13.9961C20.6803 13.9961 17.9948 16.6816 17.9948 19.9944C17.9948 23.3071 20.6803 25.9926 23.993 25.9926Z" stroke="#BFFF0B" stroke-width="3.99884" stroke-linecap="round" stroke-linejoin="round"/>
</svg>
