<svg width="48" height="48" viewBox="0 0 48 48" fill="none" xmlns="http://www.w3.org/2000/svg">
<path d="M24.4329 3.99902H23.5532C22.4926 3.99902 21.4755 4.42033 20.7256 5.17026C19.9757 5.92019 19.5544 6.93731 19.5544 7.99787V8.35776C19.5536 9.05901 19.3685 9.74774 19.0176 10.3549C18.6667 10.962 18.1622 11.4661 17.5549 11.8168L16.6952 12.3166C16.0873 12.6676 15.3977 12.8524 14.6958 12.8524C13.9938 12.8524 13.3042 12.6676 12.6963 12.3166L12.3964 12.1567C11.4788 11.6273 10.3887 11.4837 9.36531 11.7574C8.34194 12.031 7.46896 12.6996 6.93801 13.6162L6.49814 14.376C5.96882 15.2936 5.82522 16.3838 6.09887 17.4071C6.37252 18.4305 7.04105 19.3035 7.95772 19.8344L8.25763 20.0344C8.86201 20.3833 9.36455 20.8843 9.71531 21.4876C10.0661 22.0909 10.2528 22.7755 10.2571 23.4734V24.4931C10.2598 25.1977 10.0764 25.8906 9.72529 26.5015C9.37418 27.1125 8.86787 27.6198 8.25763 27.9721L7.95772 28.152C7.04105 28.683 6.37252 29.556 6.09887 30.5793C5.82522 31.6027 5.96882 32.6928 6.49814 33.6104L6.93801 34.3702C7.46896 35.2869 8.34194 35.9554 9.36531 36.2291C10.3887 36.5027 11.4788 36.3591 12.3964 35.8298L12.6963 35.6699C13.3042 35.3189 13.9938 35.1341 14.6958 35.1341C15.3977 35.1341 16.0873 35.3189 16.6952 35.6699L17.5549 36.1697C18.1622 36.5203 18.6667 37.0245 19.0176 37.6316C19.3685 38.2387 19.5536 38.9275 19.5544 39.6287V39.9886C19.5544 41.0492 19.9757 42.0663 20.7256 42.8162C21.4755 43.5661 22.4926 43.9874 23.5532 43.9874H24.4329C25.4935 43.9874 26.5106 43.5661 27.2606 42.8162C28.0105 42.0663 28.4318 41.0492 28.4318 39.9886V39.6287C28.4325 38.9275 28.6176 38.2387 28.9686 37.6316C29.3195 37.0245 29.8239 36.5203 30.4312 36.1697L31.291 35.6699C31.8989 35.3189 32.5884 35.1341 33.2904 35.1341C33.9923 35.1341 34.6819 35.3189 35.2898 35.6699L35.5897 35.8298C36.5073 36.3591 37.5975 36.5027 38.6208 36.2291C39.6442 35.9554 40.5172 35.2869 41.0481 34.3702L41.488 33.5905C42.0173 32.6728 42.1609 31.5827 41.8873 30.5593C41.6136 29.536 40.9451 28.663 40.0284 28.132L39.7285 27.9721C39.1183 27.6198 38.612 27.1125 38.2609 26.5015C37.9097 25.8906 37.7263 25.1977 37.7291 24.4931V23.4934C37.7263 22.7887 37.9097 22.0959 38.2609 21.4849C38.612 20.874 39.1183 20.3667 39.7285 20.0144L40.0284 19.8344C40.9451 19.3035 41.6136 18.4305 41.8873 17.4071C42.1609 16.3838 42.0173 15.2936 41.488 14.376L41.0481 13.6162C40.5172 12.6996 39.6442 12.031 38.6208 11.7574C37.5975 11.4837 36.5073 11.6273 35.5897 12.1567L35.2898 12.3166C34.6819 12.6676 33.9923 12.8524 33.2904 12.8524C32.5884 12.8524 31.8989 12.6676 31.291 12.3166L30.4312 11.8168C29.8239 11.4661 29.3195 10.962 28.9686 10.3549C28.6176 9.74774 28.4325 9.05901 28.4318 8.35776V7.99787C28.4318 6.93731 28.0105 5.92019 27.2606 5.17026C26.5106 4.42033 25.4935 3.99902 24.4329 3.99902Z" stroke="#BFFF0B" stroke-width="3.99884" stroke-linecap="round" stroke-linejoin="round"/>
<path d="M23.993 29.9916C27.3058 29.9916 29.9913 27.3061 29.9913 23.9934C29.9913 20.6806 27.3058 17.9951 23.993 17.9951C20.6803 17.9951 17.9948 20.6806 17.9948 23.9934C17.9948 27.3061 20.6803 29.9916 23.993 29.9916Z" stroke="#BFFF0B" stroke-width="3.99884" stroke-linecap="round" stroke-linejoin="round"/>
</svg>
