<svg width="16" height="16" viewBox="0 0 16 16" fill="none" xmlns="http://www.w3.org/2000/svg">
<path d="M10.3112 8.58789L11.3206 14.2682C11.3319 14.3351 11.3225 14.4038 11.2937 14.4652C11.2649 14.5266 11.218 14.5778 11.1593 14.6118C11.1006 14.6459 11.033 14.6612 10.9653 14.6558C10.8977 14.6503 10.8334 14.6243 10.7809 14.5813L8.39581 12.7912C8.28067 12.7051 8.1408 12.6587 7.99707 12.6587C7.85334 12.6587 7.71347 12.7051 7.59833 12.7912L5.20922 14.5807C5.1568 14.6236 5.09253 14.6495 5.025 14.655C4.95747 14.6604 4.88987 14.6452 4.83124 14.6112C4.7726 14.5773 4.72572 14.5262 4.69683 14.465C4.66794 14.4037 4.65843 14.335 4.66957 14.2682L5.67825 8.58789" stroke="#BFFF0B" stroke-width="1.33247" stroke-linecap="round" stroke-linejoin="round"/>
<path d="M7.99496 9.32683C10.2027 9.32683 11.9924 7.53713 11.9924 5.32943C11.9924 3.12173 10.2027 1.33203 7.99496 1.33203C5.78726 1.33203 3.99756 3.12173 3.99756 5.32943C3.99756 7.53713 5.78726 9.32683 7.99496 9.32683Z" stroke="#BFFF0B" stroke-width="1.33247" stroke-linecap="round" stroke-linejoin="round"/>
</svg>
