<svg width="16" height="16" viewBox="0 0 16 16" fill="none" xmlns="http://www.w3.org/2000/svg">
<g clip-path="url(#clip0_1265_2340)">
<path d="M9.6838 14.4482C9.70911 14.5113 9.75312 14.5651 9.8099 14.6024C9.86669 14.6398 9.93354 14.6589 10.0015 14.6571C10.0694 14.6554 10.1352 14.6329 10.19 14.5927C10.2448 14.5525 10.286 14.4965 10.3081 14.4322L14.6386 1.77377C14.6599 1.71473 14.664 1.65085 14.6503 1.58959C14.6367 1.52833 14.6058 1.47222 14.5614 1.42784C14.5171 1.38346 14.461 1.35264 14.3997 1.33898C14.3384 1.32532 14.2746 1.32938 14.2155 1.35071L1.55709 5.68122C1.49279 5.70327 1.43678 5.74446 1.39657 5.79926C1.35636 5.85406 1.33388 5.91985 1.33214 5.9878C1.3304 6.05574 1.34949 6.1226 1.38684 6.17938C1.42419 6.23617 1.47802 6.28017 1.5411 6.30548L6.82433 8.42411C6.99135 8.49097 7.14309 8.59097 7.27042 8.71807C7.39774 8.84517 7.49801 8.99673 7.56518 9.16363L9.6838 14.4482Z" stroke="black" stroke-width="1.33247" stroke-linecap="round" stroke-linejoin="round"/>
<path d="M14.5581 1.43066L7.26953 8.71859" stroke="black" stroke-width="1.33247" stroke-linecap="round" stroke-linejoin="round"/>
</g>
<defs>
<clipPath id="clip0_1265_2340">
<rect width="15.9896" height="15.9896" fill="white"/>
</clipPath>
</defs>
</svg>
