<svg width="16" height="16" viewBox="0 0 16 16" fill="none" xmlns="http://www.w3.org/2000/svg">
<g clip-path="url(#clip0_1265_215)">
<path d="M7.9961 1.99475H3.33247C2.97907 1.99475 2.64016 2.13514 2.39027 2.38502C2.14038 2.63491 2 2.97383 2 3.32722V12.6545C2 13.0079 2.14038 13.3468 2.39027 13.5967C2.64016 13.8466 2.97907 13.987 3.33247 13.987H12.6597C13.0131 13.987 13.352 13.8466 13.6019 13.5967C13.8518 13.3468 13.9922 13.0079 13.9922 12.6545V7.99085" stroke="white" stroke-width="1.33247" stroke-linecap="round" stroke-linejoin="round"/>
<path d="M12.242 1.74891C12.507 1.48386 12.8665 1.33496 13.2413 1.33496C13.6162 1.33496 13.9756 1.48386 14.2407 1.74891C14.5057 2.01395 14.6546 2.37343 14.6546 2.74826C14.6546 3.12308 14.5057 3.48256 14.2407 3.74761L8.23592 9.75303C8.07773 9.91109 7.88229 10.0268 7.66763 10.0895L5.75354 10.6491C5.69621 10.6658 5.63544 10.6668 5.57759 10.652C5.51974 10.6372 5.46694 10.6071 5.42472 10.5649C5.38249 10.5226 5.35239 10.4698 5.33757 10.412C5.32275 10.3541 5.32375 10.2934 5.34047 10.2361L5.90011 8.32196C5.96309 8.10747 6.07902 7.91227 6.23722 7.75433L12.242 1.74891Z" stroke="white" stroke-width="1.33247" stroke-linecap="round" stroke-linejoin="round"/>
</g>
<defs>
<clipPath id="clip0_1265_215">
<rect width="15.9896" height="15.9896" fill="white"/>
</clipPath>
</defs>
</svg>
